<svg width="1330" height="321" viewBox="0 0 1330 321" fill="none" xmlns="http://www.w3.org/2000/svg">
<path d="M663.904 21.1625L602.1 238.007L818.944 299.811L880.748 82.9667L663.904 21.1625Z" stroke="#979797" stroke-opacity="0.5" stroke-width="0.2" stroke-miterlimit="10"/>
<path d="M813.919 298.69C814.083 298.198 599.094 236.398 599.586 236.562C600.078 236.726 661.878 21.7366 661.714 22.2284C661.55 22.7202 876.539 84.5203 876.047 84.3563C875.555 84.1924 813.755 299.181 813.919 298.69Z" stroke="#979797" stroke-opacity="0.5" stroke-width="0.2" stroke-miterlimit="10"/>
<path d="M808.84 297.542C809.168 296.477 596.064 234.841 597.13 235.169C598.195 235.496 659.832 22.3926 659.504 23.4581C659.176 24.5236 872.28 86.1598 871.214 85.8319C870.149 85.5041 808.595 298.608 808.84 297.542Z" stroke="#979797" stroke-opacity="0.5" stroke-width="0.2" stroke-miterlimit="10"/>
<path d="M803.841 296.394C804.251 294.837 593.114 233.283 594.671 233.693C596.229 234.103 657.783 22.9659 657.373 24.5232C656.963 26.0805 868.1 87.6347 866.543 87.2249C864.985 86.8151 803.349 298.034 803.841 296.394Z" stroke="#979797" stroke-opacity="0.5" stroke-width="0.2" stroke-miterlimit="10"/>
<path d="M798.757 295.247C799.33 293.116 590.079 231.644 592.128 232.218C594.177 232.792 655.731 23.5401 655.158 25.5892C654.584 27.6382 863.835 89.1925 861.786 88.6187C859.737 88.045 798.183 297.378 798.757 295.247Z" stroke="#979797" stroke-opacity="0.5" stroke-width="0.2" stroke-miterlimit="10"/>
<path d="M793.758 294.182C794.496 291.559 587.129 230.169 589.752 230.907C592.375 231.644 653.765 24.2778 653.028 26.9006C652.29 29.5235 859.656 90.9137 857.034 90.1761C854.411 89.3565 793.02 296.805 793.758 294.182Z" stroke="#979797" stroke-opacity="0.5" stroke-width="0.2" stroke-miterlimit="10"/>
<path d="M788.676 293.034C789.577 289.837 584.096 228.529 587.211 229.431C590.407 230.332 651.716 24.8511 650.814 27.9657C649.913 31.1623 855.394 92.4706 852.279 91.569C849.165 90.6674 787.774 296.149 788.676 293.034Z" stroke="#979797" stroke-opacity="0.5" stroke-width="0.2" stroke-miterlimit="10"/>
<path d="M783.675 291.886C784.741 288.198 581.145 226.971 584.751 228.037C588.44 229.102 649.666 25.5064 648.6 29.1128C647.535 32.7192 851.131 94.0275 847.525 92.962C843.836 91.8964 782.61 295.574 783.675 291.886Z" stroke="#979797" stroke-opacity="0.5" stroke-width="0.2" stroke-miterlimit="10"/>
<path d="M778.593 290.739C779.823 286.559 578.03 225.333 582.292 226.562C586.472 227.792 647.699 25.9988 646.469 30.2609C645.24 34.523 847.033 95.6674 842.771 94.4379C838.59 93.2085 777.446 294.919 778.593 290.739Z" stroke="#979797" stroke-opacity="0.5" stroke-width="0.2" stroke-miterlimit="10"/>
<path d="M773.596 289.591C774.907 284.837 575.081 223.775 579.835 225.086C584.589 226.398 645.651 26.5718 644.34 31.3257C643.028 36.0795 842.854 97.142 838.1 95.8306C833.346 94.5192 772.202 294.345 773.596 289.591Z" stroke="#979797" stroke-opacity="0.5" stroke-width="0.2" stroke-miterlimit="10"/>
<path d="M768.514 288.444C769.99 283.199 572.049 222.136 577.377 223.694C582.622 225.169 643.685 27.2283 642.127 32.5558C640.652 37.8015 838.593 98.8639 833.265 97.3066C828.019 95.7493 767.039 293.69 768.514 288.444Z" stroke="#979797" stroke-opacity="0.5" stroke-width="0.2" stroke-miterlimit="10"/>
<path d="M763.512 287.297C765.151 281.477 569.096 220.579 574.915 222.218C580.735 223.857 641.633 27.8018 639.994 33.6212C638.355 39.4406 834.41 100.339 828.591 98.6998C822.771 97.0605 761.791 293.116 763.512 287.297Z" stroke="#979797" stroke-opacity="0.5" stroke-width="0.2" stroke-miterlimit="10"/>
<path d="M758.432 286.149C760.235 279.838 566.065 218.94 572.376 220.743C578.687 222.546 639.586 28.3756 637.783 34.6867C635.98 40.9979 830.15 101.896 823.839 100.093C817.528 98.372 756.629 292.46 758.432 286.149Z" stroke="#979797" stroke-opacity="0.5" stroke-width="0.2" stroke-miterlimit="10"/>
<path d="M753.432 285.084C755.399 278.281 563.114 217.464 569.999 219.431C576.802 221.398 637.619 29.1131 635.651 35.998C633.684 42.8829 825.97 103.617 819.085 101.65C812.2 99.6013 751.465 291.886 753.432 285.084Z" stroke="#979797" stroke-opacity="0.5" stroke-width="0.2" stroke-miterlimit="10"/>
<path d="M748.351 283.936C750.482 276.559 560.082 215.907 567.458 217.956C574.835 220.005 635.488 29.6869 633.439 37.0635C631.308 44.4402 821.708 105.093 814.331 103.044C806.954 100.913 746.22 291.313 748.351 283.936Z" stroke="#979797" stroke-opacity="0.5" stroke-width="0.2" stroke-miterlimit="10"/>
<path d="M743.27 282.789C745.483 274.921 557.05 214.268 564.918 216.563C572.786 218.776 633.439 30.343 631.144 38.2114C628.931 46.0799 817.364 106.733 809.496 104.438C801.709 102.225 741.057 290.657 743.27 282.789Z" stroke="#979797" stroke-opacity="0.5" stroke-width="0.2" stroke-miterlimit="10"/>
<path d="M738.269 281.641C740.646 273.199 554.098 212.71 562.541 215.087C570.983 217.464 631.472 30.916 629.095 39.3582C626.718 47.8004 813.265 108.289 804.823 105.912C796.381 103.535 735.892 290.083 738.269 281.641Z" stroke="#979797" stroke-opacity="0.5" stroke-width="0.2" stroke-miterlimit="10"/>
<path d="M733.187 280.494C735.728 271.56 551.065 211.071 559.999 213.612C568.933 216.153 629.422 31.4904 626.881 40.4244C624.34 49.3584 809.002 109.847 800.069 107.306C791.135 104.765 730.646 289.428 733.187 280.494Z" stroke="#979797" stroke-opacity="0.5" stroke-width="0.2" stroke-miterlimit="10"/>
<path d="M728.188 279.346C730.893 269.838 548.116 209.514 557.623 212.218C567.131 214.923 627.456 32.1457 624.751 41.6534C622.046 51.0792 804.824 111.486 795.316 108.781C785.808 106.076 725.483 288.854 728.188 279.346Z" stroke="#979797" stroke-opacity="0.5" stroke-width="0.2" stroke-miterlimit="10"/>
<path d="M723.107 278.199C725.975 268.199 545.083 207.875 555.083 210.743C565.082 213.612 625.407 32.7197 622.538 42.7192C619.669 52.7187 800.562 113.043 790.562 110.175C780.563 107.306 720.32 288.198 723.107 278.199Z" stroke="#979797" stroke-opacity="0.5" stroke-width="0.2" stroke-miterlimit="10"/>
<path d="M718.106 277.051C721.138 266.56 542.131 206.317 552.622 209.268C563.114 212.301 623.356 33.2934 620.406 43.7847C617.455 54.2759 796.38 114.519 785.889 111.568C775.316 108.617 715.073 287.625 718.106 277.051Z" stroke="#979797" stroke-opacity="0.5" stroke-width="0.2" stroke-miterlimit="10"/>
<path d="M713.024 275.986C716.139 264.921 539.098 204.76 550.163 207.957C561.228 211.072 621.389 34.0316 618.193 45.0966C615.078 56.1616 792.118 116.322 781.053 113.126C770.07 109.929 709.909 286.969 713.024 275.986Z" stroke="#979797" stroke-opacity="0.5" stroke-width="0.2" stroke-miterlimit="10"/>
<path d="M708.024 274.839C711.303 263.282 536.148 203.203 547.705 206.482C559.262 209.76 619.34 34.6053 616.062 46.1621C612.783 57.7189 787.938 117.798 776.382 114.519C764.743 111.159 704.664 286.396 708.024 274.839Z" stroke="#979797" stroke-opacity="0.5" stroke-width="0.2" stroke-miterlimit="10"/>
<path d="M702.943 273.691C706.386 261.561 533.116 201.564 545.165 205.088C557.295 208.531 617.292 35.261 613.768 47.3096C610.325 59.4401 783.595 119.437 771.547 115.913C759.498 112.47 699.501 285.74 702.943 273.691Z" stroke="#979797" stroke-opacity="0.5" stroke-width="0.2" stroke-miterlimit="10"/>
<path d="M697.943 272.543C701.549 259.921 530.165 200.006 542.787 203.613C555.409 207.219 615.324 35.8343 611.718 48.4566C608.112 61.0789 779.496 120.994 766.874 117.388C754.252 113.781 694.337 285.166 697.943 272.543Z" stroke="#979797" stroke-opacity="0.5" stroke-width="0.2" stroke-miterlimit="10"/>
<path d="M692.862 271.395C696.632 258.281 527.133 198.448 540.247 202.137C553.361 205.907 613.194 36.4075 609.506 49.5216C605.735 62.6357 775.235 122.469 762.121 118.78C749.007 115.092 689.092 284.591 692.862 271.395Z" stroke="#979797" stroke-opacity="0.5" stroke-width="0.2" stroke-miterlimit="10"/>
<path d="M687.862 270.249C691.796 256.561 524.182 196.81 537.788 200.744C551.475 204.597 611.226 36.9823 607.292 50.6701C603.358 64.358 770.972 124.109 757.366 120.175C743.679 116.323 683.928 283.937 687.862 270.249Z" stroke="#979797" stroke-opacity="0.5" stroke-width="0.2" stroke-miterlimit="10"/>
<path d="M682.78 269.1C686.796 254.921 521.149 195.252 535.328 199.268C549.508 203.284 609.177 37.6368 605.161 51.8164C601.145 65.996 766.792 125.665 752.612 121.649C738.433 117.633 678.764 283.362 682.78 269.1Z" stroke="#979797" stroke-opacity="0.5" stroke-width="0.2" stroke-miterlimit="10"/>
<path d="M677.781 267.953C681.961 253.2 518.117 193.613 532.871 197.793C547.624 201.973 607.211 38.1291 603.031 52.8824C598.851 67.6358 762.695 127.223 747.941 123.043C733.106 118.863 673.519 282.707 677.781 267.953Z" stroke="#979797" stroke-opacity="0.5" stroke-width="0.2" stroke-miterlimit="10"/>
<path d="M672.699 266.888C677.043 251.643 515.084 192.138 530.411 196.482C545.656 200.826 605.161 38.8673 600.817 54.1944C596.473 69.4395 758.432 128.945 743.105 124.601C727.86 120.175 668.355 282.133 672.699 266.888Z" stroke="#979797" stroke-opacity="0.5" stroke-width="0.2" stroke-miterlimit="10"/>
<path d="M667.618 265.74C672.126 249.921 512.052 190.498 527.871 195.006C543.69 199.514 603.113 39.4405 598.605 55.2594C594.097 71.0782 754.171 130.501 738.352 125.993C722.615 121.485 663.192 281.477 667.618 265.74Z" stroke="#979797" stroke-opacity="0.5" stroke-width="0.2" stroke-miterlimit="10"/>
<path d="M662.618 264.593C667.29 248.282 509.102 188.941 525.412 193.613C541.723 198.285 601.064 40.0964 596.392 56.407C591.72 72.7176 749.909 132.059 733.598 127.387C717.288 122.715 657.947 280.904 662.618 264.593Z" stroke="#979797" stroke-opacity="0.5" stroke-width="0.2" stroke-miterlimit="10"/>
<path d="M657.535 263.446C662.371 246.643 506.068 187.302 522.952 192.138C539.755 196.974 599.096 40.6703 594.26 57.5546C589.424 74.439 745.728 133.698 728.843 128.862C712.041 124.027 652.782 280.248 657.535 263.446Z" stroke="#979797" stroke-opacity="0.5" stroke-width="0.2" stroke-miterlimit="10"/>
<path d="M652.536 262.298C657.454 244.922 503.117 185.745 520.494 190.662C537.87 195.58 597.047 41.2438 592.129 58.62C587.211 75.9962 741.548 135.173 724.172 130.256C706.795 125.338 647.618 279.674 652.536 262.298Z" stroke="#979797" stroke-opacity="0.5" stroke-width="0.2" stroke-miterlimit="10"/>
<path d="M647.455 261.151C652.537 243.283 500.086 184.106 517.954 189.269C535.822 194.351 594.999 41.8998 589.836 59.7677C584.754 77.6357 737.205 136.813 719.337 131.649C701.469 126.486 642.374 279.019 647.455 261.151Z" stroke="#979797" stroke-opacity="0.5" stroke-width="0.2" stroke-miterlimit="10"/>
<path d="M642.453 260.003C647.699 241.562 497.133 182.548 515.574 187.794C534.016 193.04 593.029 42.4736 587.784 60.9153C582.538 79.3569 733.104 138.37 714.662 133.125C696.221 127.879 637.207 278.445 642.453 260.003Z" stroke="#979797" stroke-opacity="0.5" stroke-width="0.2" stroke-miterlimit="10"/>
<path d="M637.372 258.938C642.782 240.004 494.101 181.073 513.035 186.401C531.968 191.81 590.899 43.1293 585.572 62.0628C580.244 80.9962 728.843 139.928 709.91 134.6C690.976 129.19 631.963 277.871 637.372 258.938Z" stroke="#979797" stroke-opacity="0.5" stroke-width="0.2" stroke-miterlimit="10"/>
<path d="M632.373 257.791C637.947 238.365 491.151 179.434 510.658 185.007C530.083 190.581 589.015 43.7852 583.441 63.2924C577.868 82.7176 724.664 141.649 705.156 136.076C685.649 130.502 626.8 277.216 632.373 257.791Z" stroke="#979797" stroke-opacity="0.5" stroke-width="0.2" stroke-miterlimit="10"/>
<path d="M627.291 256.642C633.028 236.643 488.118 177.876 508.117 183.531C528.116 189.269 586.883 44.3583 581.228 64.3572C575.49 84.3562 720.401 143.124 700.402 137.468C680.403 131.731 621.636 276.641 627.291 256.642Z" stroke="#979797" stroke-opacity="0.5" stroke-width="0.2" stroke-miterlimit="10"/>
<path d="M622.29 255.495C628.109 235.004 485.166 176.237 505.657 182.138C526.147 187.957 584.915 45.014 579.013 65.5047C573.112 85.9955 716.138 144.763 695.647 138.862C675.156 133.042 616.389 275.986 622.29 255.495Z" stroke="#979797" stroke-opacity="0.5" stroke-width="0.2" stroke-miterlimit="10"/>
<path d="M617.209 254.348C623.192 233.283 482.134 174.68 503.199 180.663C524.263 186.646 582.867 45.5878 576.883 66.6523C570.9 87.7168 711.958 146.32 690.894 140.337C669.911 134.354 611.226 275.412 617.209 254.348Z" stroke="#979797" stroke-opacity="0.5" stroke-width="0.2" stroke-miterlimit="10"/>
<path d="M612.208 253.2C618.356 231.644 479.183 173.04 500.739 179.188C522.295 185.335 580.899 46.1617 574.751 67.718C568.604 89.2743 707.777 147.878 686.221 141.731C664.583 135.583 606.061 274.757 612.208 253.2Z" stroke="#979797" stroke-opacity="0.5" stroke-width="0.2" stroke-miterlimit="10"/>
<path d="M607.128 252.053C613.44 229.923 476.152 171.483 498.2 177.795C520.33 184.106 578.769 46.8177 572.458 68.8658C566.147 90.9958 703.435 149.435 681.387 143.124C659.339 136.895 600.817 274.183 607.128 252.053Z" stroke="#979797" stroke-opacity="0.5" stroke-width="0.2" stroke-miterlimit="10"/>
<path d="M602.13 250.905C608.605 228.283 473.202 169.844 495.823 176.319C518.445 182.794 576.885 47.3909 570.41 70.0127C563.935 92.6345 699.338 151.074 676.716 144.599C654.094 138.206 595.654 273.527 602.13 250.905Z" stroke="#979797" stroke-opacity="0.5" stroke-width="0.2" stroke-miterlimit="10"/>
<path d="M597.047 249.839C603.604 226.726 470.168 168.368 493.282 174.925C516.395 181.482 574.753 48.0466 568.196 71.1601C561.639 94.2737 695.074 152.631 671.961 146.074C648.765 139.435 590.49 272.953 597.047 249.839Z" stroke="#979797" stroke-opacity="0.5" stroke-width="0.2" stroke-miterlimit="10"/>
<path d="M591.966 248.692C598.687 225.005 467.136 166.729 490.742 173.532C514.429 180.253 572.705 48.7024 565.902 72.3077C559.263 95.9951 690.895 154.189 667.208 147.468C643.521 140.747 585.245 272.379 591.966 248.692Z" stroke="#979797" stroke-opacity="0.5" stroke-width="0.2" stroke-miterlimit="10"/>
<path d="M586.966 247.544C593.851 223.365 464.186 165.171 488.365 172.056C512.544 178.941 570.737 49.2757 563.853 73.4548C556.968 97.6339 686.633 155.828 662.454 148.943C638.275 142.058 580.081 271.723 586.966 247.544Z" stroke="#979797" stroke-opacity="0.5" stroke-width="0.2" stroke-miterlimit="10"/>
<path d="M581.884 246.397C588.933 221.644 461.153 163.615 485.824 170.663C510.577 177.712 568.606 49.9318 561.558 74.6027C554.509 99.2736 682.289 157.385 657.618 150.337C632.947 143.288 574.836 271.15 581.884 246.397Z" stroke="#979797" stroke-opacity="0.5" stroke-width="0.2" stroke-miterlimit="10"/>
<path d="M576.883 245.25C584.096 220.006 458.201 161.976 483.445 169.188C508.69 176.401 566.72 50.5061 559.507 75.7507C552.294 100.995 678.189 159.025 652.945 151.812C627.7 144.6 569.67 270.495 576.883 245.25Z" stroke="#979797" stroke-opacity="0.5" stroke-width="0.2" stroke-miterlimit="10"/>
<path d="M571.803 244.103C579.18 218.284 455.088 160.418 480.906 167.713C506.724 175.09 564.59 50.9978 557.295 76.8161C549.919 102.634 674.011 160.5 648.192 153.206C622.456 145.911 564.508 269.921 571.803 244.103Z" stroke="#979797" stroke-opacity="0.5" stroke-width="0.2" stroke-miterlimit="10"/>
<path d="M566.801 242.955C574.26 216.645 452.135 158.779 478.445 166.319C504.755 173.778 562.621 51.6533 555.081 77.9634C547.54 104.273 669.747 162.139 643.437 154.599C617.126 147.14 559.261 269.265 566.801 242.955Z" stroke="#979797" stroke-opacity="0.5" stroke-width="0.2" stroke-miterlimit="10"/>
<path d="M561.721 241.807C569.343 215.005 449.104 157.221 475.988 164.844C502.789 172.466 560.573 52.2264 552.951 79.1103C545.328 105.994 665.568 163.696 638.684 156.074C611.8 148.451 554.098 268.691 561.721 241.807Z" stroke="#979797" stroke-opacity="0.5" stroke-width="0.2" stroke-miterlimit="10"/>
<path d="M556.721 240.742C564.507 213.366 446.152 155.664 473.528 163.45C500.904 171.237 558.606 52.8824 550.819 80.258C543.033 107.634 661.387 165.336 634.012 157.549C606.636 149.763 548.934 268.035 556.721 240.742Z" stroke="#979797" stroke-opacity="0.5" stroke-width="0.2" stroke-miterlimit="10"/>
<path d="M551.639 239.595C559.589 211.727 443.12 154.107 470.987 162.058C498.855 170.008 556.475 53.5386 548.524 81.406C540.574 109.273 657.043 166.893 629.176 158.943C601.309 150.993 543.688 267.462 551.639 239.595Z" stroke="#979797" stroke-opacity="0.5" stroke-width="0.2" stroke-miterlimit="10"/>
<path d="M546.641 238.447C554.755 210.006 440.171 152.468 468.612 160.582C497.053 168.697 554.591 54.1124 546.477 82.5535C538.363 110.995 652.947 168.533 624.506 160.418C596.065 152.304 538.527 266.806 546.641 238.447Z" stroke="#979797" stroke-opacity="0.5" stroke-width="0.2" stroke-miterlimit="10"/>
<path d="M541.558 237.299C549.836 208.366 437.137 150.91 466.07 159.107C495.003 167.385 552.459 54.7678 544.262 83.7007C536.066 112.634 648.683 170.09 619.75 161.893C590.817 153.615 533.361 266.232 541.558 237.299Z" stroke="#979797" stroke-opacity="0.5" stroke-width="0.2" stroke-miterlimit="10"/>
<path d="M536.559 236.152C544.919 206.727 434.187 149.271 463.694 157.713C493.118 166.074 550.574 55.3417 542.132 84.8484C533.69 114.355 644.504 171.729 614.997 163.287C585.491 154.845 528.117 265.659 536.559 236.152Z" stroke="#979797" stroke-opacity="0.5" stroke-width="0.2" stroke-miterlimit="10"/>
<path d="M531.477 235.005C540.002 205.006 431.155 147.714 461.153 156.238C491.152 164.762 548.444 55.9155 539.92 85.9139C531.396 115.912 640.242 173.205 610.244 164.68C580.245 156.156 522.953 265.003 531.477 235.005Z" stroke="#979797" stroke-opacity="0.5" stroke-width="0.2" stroke-miterlimit="10"/>
<path d="M526.476 233.857C535.164 203.367 428.202 146.157 458.693 154.845C489.183 163.533 546.393 56.5711 537.705 87.0613C529.017 117.552 635.979 174.762 605.488 166.074C574.998 157.386 517.706 264.429 526.476 233.857Z" stroke="#979797" stroke-opacity="0.5" stroke-width="0.2" stroke-miterlimit="10"/>
<path d="M521.395 232.71C530.247 201.728 425.17 144.6 456.234 153.37C487.298 162.14 544.427 57.1451 535.575 88.2091C526.723 119.273 631.799 176.401 600.735 167.549C569.671 158.697 512.543 263.774 521.395 232.71Z" stroke="#979797" stroke-opacity="0.5" stroke-width="0.2" stroke-miterlimit="10"/>
<path d="M516.313 231.644C525.329 200.088 422.138 143.042 453.693 151.976C485.249 160.992 542.295 57.8004 533.361 89.3561C524.345 120.912 627.537 177.958 595.981 169.024C564.425 160.008 507.379 263.2 516.313 231.644Z" stroke="#979797" stroke-opacity="0.5" stroke-width="0.2" stroke-miterlimit="10"/>
<path d="M511.314 230.497C520.494 198.367 419.188 141.403 451.235 150.583C483.283 159.762 540.329 58.4562 531.149 90.5037C522.051 122.551 623.358 179.597 591.228 170.418C559.181 161.32 502.134 262.544 511.314 230.497Z" stroke="#979797" stroke-opacity="0.5" stroke-width="0.2" stroke-miterlimit="10"/>
<path d="M506.23 229.349C515.492 196.727 416.153 139.845 448.774 149.107C481.396 158.369 538.278 59.0295 529.016 91.6508C519.754 124.272 619.093 181.154 586.472 171.893C553.851 162.631 496.969 261.97 506.23 229.349Z" stroke="#979797" stroke-opacity="0.5" stroke-width="0.2" stroke-miterlimit="10"/>
<path d="M501.231 228.202C510.657 195.089 413.203 138.207 446.316 147.632C479.429 157.058 536.312 59.6042 526.886 92.7172C517.46 125.83 614.914 182.713 581.801 173.287C548.606 163.861 491.806 261.315 501.231 228.202Z" stroke="#979797" stroke-opacity="0.5" stroke-width="0.2" stroke-miterlimit="10"/>
<path d="M496.15 227.054C505.74 193.367 410.171 136.649 443.776 146.238C477.463 155.828 534.181 60.259 524.592 93.8639C515.002 127.469 610.571 184.269 576.966 174.679C543.361 165.172 486.561 260.741 496.15 227.054Z" stroke="#979797" stroke-opacity="0.5" stroke-width="0.2" stroke-miterlimit="10"/>
<path d="M491.15 225.906C500.904 191.728 407.22 135.009 441.399 144.763C475.577 154.517 532.296 60.8329 522.542 95.0114C512.788 129.19 606.472 185.908 572.293 176.155C538.033 166.401 481.396 260.085 491.15 225.906Z" stroke="#979797" stroke-opacity="0.5" stroke-width="0.2" stroke-miterlimit="10"/>
<path d="M486.069 224.758C495.987 190.006 404.188 133.452 438.859 143.369C473.529 153.287 530.165 61.4882 520.248 96.1585C510.33 130.911 602.129 187.465 567.459 177.548C532.788 167.712 476.234 259.511 486.069 224.758Z" stroke="#979797" stroke-opacity="0.5" stroke-width="0.2" stroke-miterlimit="10"/>
<path d="M481.07 223.693C491.151 188.449 401.238 131.895 436.482 141.976C471.726 152.058 528.28 62.1443 518.199 97.3884C508.117 132.632 598.031 189.187 562.787 179.105C527.543 169.024 470.988 258.937 481.07 223.693Z" stroke="#979797" stroke-opacity="0.5" stroke-width="0.2" stroke-miterlimit="10"/>
<path d="M475.988 222.546C486.152 186.81 398.205 130.337 433.941 140.501C469.677 150.664 526.15 62.6358 515.986 98.4537C505.823 134.271 593.769 190.662 558.033 180.499C522.297 170.335 465.825 258.281 475.988 222.546Z" stroke="#979797" stroke-opacity="0.5" stroke-width="0.2" stroke-miterlimit="10"/>
<path d="M470.987 221.398C481.315 185.088 395.172 128.78 431.481 139.107C467.791 149.434 524.099 63.2913 513.772 99.6009C503.445 135.911 589.588 192.219 553.278 181.892C516.969 171.564 460.578 257.708 470.987 221.398Z" stroke="#979797" stroke-opacity="0.5" stroke-width="0.2" stroke-miterlimit="10"/>
<path d="M465.907 220.251C476.398 183.449 392.141 127.141 429.024 137.632C465.907 148.123 522.134 63.8651 511.643 100.748C501.151 137.632 585.409 193.858 548.526 183.367C511.725 172.876 455.416 257.052 465.907 220.251Z" stroke="#979797" stroke-opacity="0.5" stroke-width="0.2" stroke-miterlimit="10"/>
<path d="M460.905 219.103C471.56 181.728 389.187 125.583 426.562 136.157C463.937 146.73 520.082 64.4391 509.509 101.814C498.936 139.189 581.226 195.334 543.851 184.761C506.394 174.106 450.25 256.478 460.905 219.103Z" stroke="#979797" stroke-opacity="0.5" stroke-width="0.2" stroke-miterlimit="10"/>
<path d="M455.825 217.956C466.644 180.089 386.156 123.945 424.023 134.764C461.89 145.583 518.035 65.0954 507.216 102.962C496.397 140.829 576.884 196.974 539.017 186.155C501.15 175.418 445.006 255.823 455.825 217.956Z" stroke="#979797" stroke-opacity="0.5" stroke-width="0.2" stroke-miterlimit="10"/>
<path d="M450.825 216.809C461.808 178.368 383.205 122.388 421.646 133.289C460.087 144.272 516.067 65.6692 505.166 104.11C494.183 142.551 572.786 198.531 534.345 187.63C495.904 176.729 439.842 255.25 450.825 216.809Z" stroke="#979797" stroke-opacity="0.5" stroke-width="0.2" stroke-miterlimit="10"/>
<path d="M445.742 215.661C456.807 176.729 380.171 120.748 419.104 131.895C458.036 143.042 514.017 66.3244 502.87 105.257C491.805 144.189 568.44 200.17 529.508 189.023C490.576 177.876 434.677 254.593 445.742 215.661Z" stroke="#979797" stroke-opacity="0.5" stroke-width="0.2" stroke-miterlimit="10"/>
<path d="M440.743 214.595C451.972 175.171 377.222 119.272 416.728 130.501C456.234 141.73 511.969 66.9797 500.74 106.404C489.511 145.828 564.261 201.727 524.755 190.498C485.249 179.269 429.432 254.019 440.743 214.595Z" stroke="#979797" stroke-opacity="0.5" stroke-width="0.2" stroke-miterlimit="10"/>
<path d="M435.661 213.448C447.054 173.45 374.189 117.633 414.187 129.026C454.185 140.419 510.002 67.5535 498.609 107.551C487.216 147.549 560.081 203.366 520.083 191.973C480.085 180.58 424.268 253.364 435.661 213.448Z" stroke="#979797" stroke-opacity="0.5" stroke-width="0.2" stroke-miterlimit="10"/>
<path d="M430.58 212.3C442.137 171.811 371.157 116.076 411.646 127.633C452.136 139.189 507.871 68.2094 496.314 108.699C484.757 149.189 555.737 204.924 515.248 193.367C474.84 181.81 419.105 252.79 430.58 212.3Z" stroke="#979797" stroke-opacity="0.5" stroke-width="0.2" stroke-miterlimit="10"/>
<path d="M425.581 211.153C437.302 170.09 368.207 114.437 409.271 126.158C450.334 137.878 505.987 68.7835 494.266 109.847C482.546 150.91 551.64 206.563 510.577 194.843C469.513 183.122 413.861 252.217 425.581 211.153Z" stroke="#979797" stroke-opacity="0.5" stroke-width="0.2" stroke-miterlimit="10"/>
<path d="M420.5 210.005C432.303 168.45 365.175 112.879 406.73 124.682C448.285 136.485 503.856 69.3568 492.054 110.912C480.251 152.467 547.379 208.038 505.823 196.236C464.268 184.433 408.697 251.561 420.5 210.005Z" stroke="#979797" stroke-opacity="0.5" stroke-width="0.2" stroke-miterlimit="10"/>
<path d="M415.498 208.857C427.465 166.81 362.222 111.321 404.269 123.288C446.316 135.255 501.805 70.0121 489.839 112.059C477.872 154.106 543.115 209.595 501.068 197.628C459.021 185.662 403.532 250.986 415.498 208.857Z" stroke="#979797" stroke-opacity="0.5" stroke-width="0.2" stroke-miterlimit="10"/>
<path d="M410.418 207.711C422.548 165.09 359.191 109.683 401.812 121.814C444.433 133.944 499.84 70.5868 487.709 113.208C475.579 155.828 538.936 211.235 496.315 199.105C453.694 186.974 398.287 250.332 410.418 207.711Z" stroke="#979797" stroke-opacity="0.5" stroke-width="0.2" stroke-miterlimit="10"/>
<path d="M405.417 206.563C417.712 163.45 356.24 108.125 399.352 120.42C442.465 132.714 497.79 71.2421 485.495 114.355C473.201 157.467 534.673 212.792 491.56 200.498C448.448 188.285 393.123 249.758 405.417 206.563Z" stroke="#979797" stroke-opacity="0.5" stroke-width="0.2" stroke-miterlimit="10"/>
<path d="M400.335 205.497C412.793 161.811 353.206 106.568 396.893 119.026C440.579 131.484 495.822 71.8973 483.363 115.584C470.905 159.27 530.492 214.513 486.806 202.055C443.202 189.514 387.877 249.101 400.335 205.497Z" stroke="#979797" stroke-opacity="0.5" stroke-width="0.2" stroke-miterlimit="10"/>
<path d="M395.335 204.35C407.957 160.172 350.256 105.011 394.434 117.551C438.612 130.092 493.773 72.4716 481.232 116.65C468.692 160.828 526.312 215.989 482.134 203.448C437.956 190.908 382.713 248.528 395.335 204.35Z" stroke="#979797" stroke-opacity="0.5" stroke-width="0.2" stroke-miterlimit="10"/>
<path d="M390.254 203.203C402.958 158.451 347.223 103.372 391.893 116.158C436.563 128.945 491.724 73.1277 478.938 117.798C466.233 162.549 521.968 217.628 477.298 204.842C432.629 192.056 377.549 247.873 390.254 203.203Z" stroke="#979797" stroke-opacity="0.5" stroke-width="0.2" stroke-miterlimit="10"/>
<path d="M385.254 202.055C398.122 156.812 344.272 101.815 389.516 114.683C434.759 127.551 489.756 73.7012 476.888 118.945C464.02 164.188 517.87 219.186 472.626 206.317C427.383 193.367 372.304 247.299 385.254 202.055Z" stroke="#979797" stroke-opacity="0.5" stroke-width="0.2" stroke-miterlimit="10"/>
<path d="M380.172 200.908C393.204 155.172 341.24 100.175 386.975 113.207C432.71 126.239 487.708 74.2748 474.676 120.01C461.643 165.746 513.608 220.743 467.873 207.711C422.055 194.678 367.14 246.643 380.172 200.908Z" stroke="#979797" stroke-opacity="0.5" stroke-width="0.2" stroke-miterlimit="10"/>
<path d="M375.173 199.76C388.369 153.451 338.29 98.6177 384.517 111.814C430.744 125.01 485.659 74.9304 472.463 121.158C459.267 167.467 509.346 222.3 463.119 209.104C416.81 195.99 361.977 246.069 375.173 199.76Z" stroke="#979797" stroke-opacity="0.5" stroke-width="0.2" stroke-miterlimit="10"/>
<path d="M370.091 198.612C383.451 151.812 335.174 96.9784 382.057 110.338C428.94 123.698 483.691 75.4221 470.331 122.305C456.972 169.106 505.248 223.939 458.365 210.579C411.564 197.219 356.731 245.495 370.091 198.612Z" stroke="#979797" stroke-opacity="0.5" stroke-width="0.2" stroke-miterlimit="10"/>
<path d="M365.091 197.465C378.615 150.091 332.224 95.4214 379.598 108.945C426.973 122.469 481.642 76.0782 468.118 123.453C454.594 170.827 500.986 225.497 453.611 211.973C406.236 198.531 351.567 244.84 365.091 197.465Z" stroke="#979797" stroke-opacity="0.5" stroke-width="0.2" stroke-miterlimit="10"/>
<path d="M360.009 196.4C373.615 148.534 329.191 93.9463 377.058 107.552C424.924 121.158 479.511 76.7341 465.906 124.6C452.3 172.467 496.724 227.054 448.857 213.448C400.991 199.843 346.403 244.266 360.009 196.4Z" stroke="#979797" stroke-opacity="0.5" stroke-width="0.2" stroke-miterlimit="10"/>
<path d="M354.928 195.253C368.698 146.813 326.159 92.3073 374.599 106.077C423.039 119.847 477.544 77.308 463.775 125.748C450.005 174.188 492.544 228.694 444.104 214.924C395.745 201.072 341.158 243.611 354.928 195.253Z" stroke="#979797" stroke-opacity="0.5" stroke-width="0.2" stroke-miterlimit="10"/>
<path d="M349.927 194.105C363.861 145.173 323.207 90.7495 372.139 104.683C421.071 118.617 475.576 77.9632 461.561 126.895C447.545 175.827 488.281 230.25 439.349 216.317C390.417 202.383 335.993 243.037 349.927 194.105Z" stroke="#979797" stroke-opacity="0.5" stroke-width="0.2" stroke-miterlimit="10"/>
<path d="M344.846 192.957C358.944 143.533 320.175 89.1096 369.681 103.207C419.187 117.305 473.528 78.5363 459.431 128.042C445.333 177.466 484.101 231.889 434.596 217.791C385.09 203.694 330.749 242.38 344.846 192.957Z" stroke="#979797" stroke-opacity="0.5" stroke-width="0.2" stroke-miterlimit="10"/>
<path d="M339.847 191.81C354.108 141.813 317.225 87.5535 367.222 101.733C417.22 115.913 471.479 79.1113 457.3 129.109C443.12 179.106 479.921 233.366 429.924 219.186C379.926 204.924 325.585 241.808 339.847 191.81Z" stroke="#979797" stroke-opacity="0.5" stroke-width="0.2" stroke-miterlimit="10"/>
<path d="M334.766 190.662C349.191 140.173 314.193 85.9132 364.682 100.339C415.172 114.764 469.431 79.7659 455.006 130.255C440.58 180.744 475.578 235.004 425.089 220.578C374.6 206.153 320.422 241.151 334.766 190.662Z" stroke="#979797" stroke-opacity="0.5" stroke-width="0.2" stroke-miterlimit="10"/>
<path d="M329.766 189.515C344.274 138.452 311.242 84.3567 362.305 98.8642C413.368 113.372 467.464 80.4225 452.874 131.404C438.367 182.466 471.398 236.562 420.335 222.055C369.272 207.547 315.177 240.578 329.766 189.515Z" stroke="#979797" stroke-opacity="0.5" stroke-width="0.2" stroke-miterlimit="10"/>
<path d="M324.684 188.367C339.356 136.812 308.21 82.7167 359.765 97.4701C411.319 112.223 465.415 80.9955 450.744 132.55C436.072 184.105 467.218 238.201 415.663 223.447C364.109 208.694 310.013 240.004 324.684 188.367Z" stroke="#979797" stroke-opacity="0.5" stroke-width="0.2" stroke-miterlimit="10"/>
<path d="M319.685 187.301C334.52 135.255 305.259 81.2411 357.306 96.0764C409.352 110.912 463.366 81.6509 448.531 133.697C433.695 185.744 462.956 239.758 410.91 224.922C358.863 210.087 304.85 239.348 319.685 187.301Z" stroke="#979797" stroke-opacity="0.5" stroke-width="0.2" stroke-miterlimit="10"/>
<path d="M314.603 186.154C329.603 133.534 302.227 79.6023 354.847 94.6015C407.468 109.601 461.399 82.2251 446.4 134.845C431.401 187.466 458.776 241.397 406.156 226.398C353.536 211.399 299.604 238.774 314.603 186.154Z" stroke="#979797" stroke-opacity="0.5" stroke-width="0.2" stroke-miterlimit="10"/>
<path d="M309.603 185.007C324.766 131.895 299.275 78.0451 352.387 93.2082C405.499 108.371 459.349 82.8809 444.186 135.993C429.023 189.105 454.513 242.955 401.401 227.791C348.289 212.628 294.439 238.119 309.603 185.007Z" stroke="#979797" stroke-opacity="0.5" stroke-width="0.2" stroke-miterlimit="10"/>
<path d="M304.521 183.86C319.848 130.174 296.243 76.4062 349.929 91.7333C403.615 107.06 457.382 83.455 442.055 137.141C426.728 190.827 450.333 244.594 396.648 229.267C342.962 213.94 289.276 237.545 304.521 183.86Z" stroke="#979797" stroke-opacity="0.5" stroke-width="0.2" stroke-miterlimit="10"/>
<path d="M299.521 182.712C314.93 128.534 293.292 74.8485 347.47 90.2575C401.647 105.667 455.333 84.0283 439.924 138.206C424.515 192.383 446.153 246.069 391.976 230.66C337.798 215.251 284.03 236.889 299.521 182.712Z" stroke="#979797" stroke-opacity="0.5" stroke-width="0.2" stroke-miterlimit="10"/>
<path d="M294.441 181.565C310.014 126.813 290.261 73.2917 344.93 88.8646C399.599 104.438 453.203 84.6845 437.63 139.354C422.057 194.023 441.81 247.627 387.141 232.054C332.471 216.481 278.868 236.316 294.441 181.565Z" stroke="#979797" stroke-opacity="0.5" stroke-width="0.2" stroke-miterlimit="10"/>
<path d="M289.44 180.417C305.177 125.174 287.309 71.6518 342.552 87.3887C397.796 103.126 451.317 85.2577 435.58 140.501C419.844 195.744 437.712 249.266 382.468 233.529C327.225 217.792 273.622 235.66 289.44 180.417Z" stroke="#979797" stroke-opacity="0.5" stroke-width="0.2" stroke-miterlimit="10"/>
<path d="M284.356 179.352C300.257 123.617 284.274 70.1768 340.009 86.0777C395.744 101.978 449.184 85.9957 433.283 141.731C417.382 197.465 433.365 250.905 377.63 235.004C321.895 219.104 268.455 235.086 284.356 179.352Z" stroke="#979797" stroke-opacity="0.5" stroke-width="0.2" stroke-miterlimit="10"/>
<path d="M279.277 178.204C295.342 121.895 281.244 68.5371 337.471 84.6019C393.698 100.667 447.138 86.569 431.073 142.796C415.008 199.022 429.106 252.462 372.879 236.397C316.652 220.333 263.294 234.43 279.277 178.204Z" stroke="#979797" stroke-opacity="0.5" stroke-width="0.2" stroke-miterlimit="10"/>
<path d="M274.276 177.057C290.504 120.256 278.292 66.9805 335.092 83.1272C391.892 99.2739 445.168 87.1434 429.022 143.944C412.793 200.744 425.005 254.02 368.205 237.873C311.323 221.645 258.047 233.857 274.276 177.057Z" stroke="#979797" stroke-opacity="0.5" stroke-width="0.2" stroke-miterlimit="10"/>
<path d="M269.194 175.908C285.505 118.534 275.177 65.3402 332.552 81.7328C389.926 98.1254 443.12 87.7161 426.727 145.09C410.416 202.464 420.744 255.658 363.37 239.266C305.996 222.873 252.884 233.282 269.194 175.908Z" stroke="#979797" stroke-opacity="0.5" stroke-width="0.2" stroke-miterlimit="10"/>
<path d="M264.196 174.762C280.67 116.896 272.228 63.7841 330.094 80.2586C387.96 96.7332 441.072 88.291 424.597 146.157C408.123 204.023 416.565 257.135 358.699 240.66C300.833 224.186 247.721 232.628 264.196 174.762Z" stroke="#979797" stroke-opacity="0.5" stroke-width="0.2" stroke-miterlimit="10"/>
<path d="M259.115 173.614C275.753 115.256 269.196 62.1444 327.636 78.7829C386.075 95.4214 439.105 88.8644 422.467 147.304C405.828 205.662 412.385 258.774 353.946 242.135C295.506 225.497 242.476 232.054 259.115 173.614Z" stroke="#979797" stroke-opacity="0.5" stroke-width="0.2" stroke-miterlimit="10"/>
<path d="M254.114 172.466C270.916 113.535 266.244 60.5865 325.176 77.3889C384.107 94.1913 437.055 89.5194 420.253 148.451C403.451 207.382 408.122 260.33 349.191 243.528C290.26 226.726 237.312 231.397 254.114 172.466Z" stroke="#979797" stroke-opacity="0.5" stroke-width="0.2" stroke-miterlimit="10"/>
<path d="M249.032 171.319C265.998 111.896 263.212 58.9476 322.717 75.914C382.222 92.8803 435.088 90.0936 418.122 149.599C401.155 209.022 403.942 261.97 344.437 245.004C285.014 228.037 232.148 230.824 249.032 171.319Z" stroke="#979797" stroke-opacity="0.5" stroke-width="0.2" stroke-miterlimit="10"/>
<path d="M244.032 170.254C261.162 110.257 260.261 57.4727 320.258 74.603C380.254 91.7333 433.039 90.8317 415.908 150.829C398.778 210.825 399.68 263.61 339.683 246.479C279.686 229.349 226.902 230.169 244.032 170.254Z" stroke="#979797" stroke-opacity="0.5" stroke-width="0.2" stroke-miterlimit="10"/>
<path d="M238.951 169.107C256.163 108.618 257.228 55.9157 317.717 73.1279C378.206 90.3402 430.908 91.4057 413.696 151.894C396.483 212.383 395.418 265.085 334.929 247.873C274.441 230.661 221.738 229.595 238.951 169.107Z" stroke="#979797" stroke-opacity="0.5" stroke-width="0.2" stroke-miterlimit="10"/>
<path d="M233.952 167.958C251.328 106.896 254.278 54.2756 315.341 71.6518C376.403 89.0279 429.024 91.9786 411.647 153.041C394.189 214.022 391.239 266.724 330.176 249.266C269.114 231.807 216.494 228.939 233.952 167.958Z" stroke="#979797" stroke-opacity="0.5" stroke-width="0.2" stroke-miterlimit="10"/>
<path d="M228.869 166.811C246.409 105.256 251.245 52.7182 312.799 70.2583C374.353 87.7983 426.973 92.6342 409.433 154.188C391.893 215.743 387.057 268.281 325.503 250.741C263.949 233.201 211.329 228.365 228.869 166.811Z" stroke="#979797" stroke-opacity="0.5" stroke-width="0.2" stroke-miterlimit="10"/>
<path d="M223.868 165.663C241.49 103.617 248.293 51.079 310.339 68.7831C372.385 86.4871 424.923 93.208 407.219 155.254C389.515 217.3 382.794 269.838 320.748 252.134C258.62 234.512 206.164 227.709 223.868 165.663Z" stroke="#979797" stroke-opacity="0.5" stroke-width="0.2" stroke-miterlimit="10"/>
<path d="M218.788 164.516C236.656 101.896 245.262 49.5218 307.882 67.3077C370.502 85.0937 422.876 93.8637 405.008 156.402C387.14 219.021 378.534 271.396 315.914 253.61C253.295 235.824 200.92 227.136 218.788 164.516Z" stroke="#979797" stroke-opacity="0.5" stroke-width="0.2" stroke-miterlimit="10"/>
<path d="M213.789 163.368C231.739 100.256 242.312 47.882 305.424 65.9139C368.535 83.9457 420.909 94.437 402.878 157.548C384.846 220.66 374.354 273.034 311.243 255.002C248.131 237.053 195.757 226.561 213.789 163.368Z" stroke="#979797" stroke-opacity="0.5" stroke-width="0.2" stroke-miterlimit="10"/>
<path d="M208.706 162.221C226.82 98.5357 239.278 46.3253 302.964 64.4391C366.649 82.5529 418.859 95.0113 400.746 158.697C382.632 222.382 370.173 274.592 306.488 256.478C242.803 238.365 190.592 225.906 208.706 162.221Z" stroke="#979797" stroke-opacity="0.5" stroke-width="0.2" stroke-miterlimit="10"/>
<path d="M203.624 161.156C221.901 96.9791 236.245 44.7687 300.422 63.1284C364.599 81.4881 416.809 95.7497 398.45 159.927C380.172 224.104 365.828 276.314 301.651 257.954C237.556 239.595 185.346 225.333 203.624 161.156Z" stroke="#979797" stroke-opacity="0.5" stroke-width="0.2" stroke-miterlimit="10"/>
<path d="M198.625 160.008C217.067 95.3389 233.295 43.2104 297.964 61.6521C362.633 80.0938 414.761 96.3224 396.32 160.991C377.878 225.66 361.649 277.788 296.98 259.347C232.312 240.905 180.183 224.676 198.625 160.008Z" stroke="#979797" stroke-opacity="0.5" stroke-width="0.2" stroke-miterlimit="10"/>
<path d="M193.543 158.861C212.148 93.618 230.262 41.5715 295.505 60.1771C360.747 78.7827 412.794 96.8965 394.188 162.139C375.583 227.382 357.469 279.346 292.226 260.741C226.984 242.217 175.019 224.103 193.543 158.861Z" stroke="#979797" stroke-opacity="0.5" stroke-width="0.2" stroke-miterlimit="10"/>
<path d="M188.543 157.713C207.312 91.9788 227.311 40.0142 293.045 58.7837C358.78 77.5533 410.744 97.5523 391.975 163.287C373.205 229.021 353.206 280.985 287.472 262.216C221.738 243.446 169.773 223.447 188.543 157.713Z" stroke="#979797" stroke-opacity="0.5" stroke-width="0.2" stroke-miterlimit="10"/>
<path d="M183.461 156.566C202.395 90.2584 224.279 38.4578 290.587 57.3093C356.895 76.1608 408.695 98.1268 389.844 164.353C370.993 230.579 349.026 282.544 282.718 263.61C216.41 244.677 164.61 222.875 183.461 156.566Z" stroke="#979797" stroke-opacity="0.5" stroke-width="0.2" stroke-miterlimit="10"/>
<path d="M178.462 155.418C197.477 88.6183 221.247 36.8177 288.129 55.9151C355.01 75.0125 406.647 98.6998 387.632 165.5C368.616 232.299 344.765 284.1 277.965 265.085C211.165 246.069 159.447 222.218 178.462 155.418Z" stroke="#979797" stroke-opacity="0.5" stroke-width="0.2" stroke-miterlimit="10"/>
<path d="M173.379 154.271C192.558 86.9791 218.295 35.2604 285.586 54.4398C352.878 73.6191 404.596 99.3555 385.417 166.647C366.238 234.021 340.501 285.657 273.21 266.478C205.918 247.299 154.2 221.644 173.379 154.271Z" stroke="#979797" stroke-opacity="0.5" stroke-width="0.2" stroke-miterlimit="10"/>
<path d="M168.38 153.123C187.724 85.258 215.345 33.6214 283.128 52.9646C350.912 72.3079 402.631 99.9294 383.287 167.713C363.944 235.578 336.322 287.215 268.539 267.872C200.674 248.61 149.037 220.989 168.38 153.123Z" stroke="#979797" stroke-opacity="0.5" stroke-width="0.2" stroke-miterlimit="10"/>
<path d="M163.298 152.058C182.805 83.6185 212.312 32.0637 280.669 51.5709C349.026 71.0781 400.581 100.585 381.155 168.942C361.73 237.299 332.224 288.854 263.784 269.347C195.345 249.839 143.791 220.415 163.298 152.058Z" stroke="#979797" stroke-opacity="0.5" stroke-width="0.2" stroke-miterlimit="10"/>
<path d="M158.3 150.91C177.971 81.9795 209.281 30.5068 278.212 50.1779C347.143 69.849 398.616 101.159 378.945 170.09C359.274 239.021 327.964 290.493 259.033 270.822C190.102 251.151 138.629 219.841 158.3 150.91Z" stroke="#979797" stroke-opacity="0.5" stroke-width="0.2" stroke-miterlimit="10"/>
<path d="M153.218 149.763C172.971 80.3401 206.248 28.9493 275.753 48.7023C345.257 68.4554 396.566 101.732 376.731 171.237C356.978 240.66 323.701 292.05 254.278 272.215C184.856 252.38 133.465 219.185 153.218 149.763Z" stroke="#979797" stroke-opacity="0.5" stroke-width="0.2" stroke-miterlimit="10"/>
<path d="M148.218 148.615C168.135 78.6186 203.297 27.3097 273.293 47.3087C343.289 67.3077 394.598 102.388 374.599 172.384C354.6 242.381 319.52 293.689 249.524 273.691C179.527 253.773 128.219 218.611 148.218 148.615Z" stroke="#979797" stroke-opacity="0.5" stroke-width="0.2" stroke-miterlimit="10"/>
<path d="M143.136 147.468C163.217 76.9795 200.264 25.7527 270.752 45.8336C341.24 65.9145 392.467 102.962 372.386 173.45C352.305 243.938 315.258 295.165 244.77 275.084C174.282 255.003 123.055 217.956 143.136 147.468Z" stroke="#979797" stroke-opacity="0.5" stroke-width="0.2" stroke-miterlimit="10"/>
<path d="M138.137 146.32C158.382 75.3399 197.314 24.113 268.376 44.3579C339.438 64.6027 390.583 103.535 370.338 174.597C350.093 245.577 311.161 296.804 240.099 276.559C169.037 256.314 117.892 217.382 138.137 146.32Z" stroke="#979797" stroke-opacity="0.5" stroke-width="0.2" stroke-miterlimit="10"/>
<path d="M133.055 145.172C153.464 73.6186 194.281 22.5557 265.835 42.9644C337.389 63.3732 388.452 104.191 368.043 175.744C347.634 247.298 306.816 298.361 235.263 277.952C163.709 257.544 112.646 216.726 133.055 145.172Z" stroke="#979797" stroke-opacity="0.5" stroke-width="0.2" stroke-miterlimit="10"/>
<path d="M127.971 144.108C148.544 72.0621 191.247 21.0811 263.292 41.5719C335.338 62.0626 386.319 104.847 365.828 176.893C345.337 248.938 302.553 299.919 230.507 279.428C158.462 258.856 107.481 216.153 127.971 144.108Z" stroke="#979797" stroke-opacity="0.5" stroke-width="0.2" stroke-miterlimit="10"/>
<path d="M122.972 142.959C143.627 70.3402 188.296 19.4412 260.916 40.1779C333.535 60.9145 384.434 105.502 363.697 178.122C342.961 250.741 298.373 301.64 225.753 280.903C153.216 260.167 102.317 215.497 122.972 142.959Z" stroke="#979797" stroke-opacity="0.5" stroke-width="0.2" stroke-miterlimit="10"/>
<path d="M117.893 141.813C138.711 68.7021 185.266 17.8851 258.377 38.7037C331.488 59.5223 382.305 106.077 361.487 179.188C340.668 252.299 294.113 303.116 221.002 282.298C147.891 261.479 97.0739 214.924 117.893 141.813Z" stroke="#979797" stroke-opacity="0.5" stroke-width="0.2" stroke-miterlimit="10"/>
<path d="M112.891 140.665C133.874 66.9801 182.314 16.245 255.999 37.2275C329.683 58.21 380.337 106.65 359.354 180.335C338.371 254.02 289.931 304.755 216.329 283.69C142.644 262.708 91.9088 214.268 112.891 140.665Z" stroke="#979797" stroke-opacity="0.5" stroke-width="0.2" stroke-miterlimit="10"/>
<path d="M107.811 139.517C128.957 65.3407 179.283 14.6876 253.459 35.834C327.636 56.9805 378.289 107.306 357.142 181.482C335.996 255.659 285.671 306.312 211.494 285.165C137.318 264.019 86.6644 213.694 107.811 139.517Z" stroke="#979797" stroke-opacity="0.5" stroke-width="0.2" stroke-miterlimit="10"/>
<path d="M102.81 138.37C124.12 63.7021 176.33 13.049 250.999 34.3594C325.667 55.6698 376.32 107.88 355.01 182.548C333.699 257.217 281.489 307.87 206.821 286.56C132.152 265.249 81.4992 213.121 102.81 138.37Z" stroke="#979797" stroke-opacity="0.5" stroke-width="0.2" stroke-miterlimit="10"/>
<path d="M97.728 137.223C119.202 61.981 173.298 11.4918 248.54 32.8842C323.782 54.2765 374.271 108.454 352.879 183.696C331.404 258.938 277.309 309.427 202.067 288.035C126.825 266.561 76.3356 212.465 97.728 137.223Z" stroke="#979797" stroke-opacity="0.5" stroke-width="0.2" stroke-miterlimit="10"/>
<path d="M92.7278 136.075C114.284 60.3408 170.347 9.85164 246.081 31.4899C321.814 53.1281 372.304 109.109 350.665 184.843C329.027 260.576 273.046 311.066 197.313 289.427C121.579 267.789 71.0896 211.89 92.7278 136.075Z" stroke="#979797" stroke-opacity="0.5" stroke-width="0.2" stroke-miterlimit="10"/>
<path d="M87.6464 135.009C109.367 58.7016 167.314 8.29435 243.622 30.0965C319.93 51.8987 370.255 109.765 348.535 185.99C326.814 262.298 268.867 312.623 192.641 290.903C116.251 269.183 65.9262 211.235 87.6464 135.009Z" stroke="#979797" stroke-opacity="0.5" stroke-width="0.2" stroke-miterlimit="10"/>
<path d="M82.6469 133.862C104.531 57.0628 164.282 6.73752 241.081 28.6216C317.881 50.5058 368.206 110.339 346.24 187.138C324.274 263.937 264.523 314.263 187.724 292.297C110.924 270.331 60.7628 210.661 82.6469 133.862Z" stroke="#979797" stroke-opacity="0.5" stroke-width="0.2" stroke-miterlimit="10"/>
<path d="M77.5659 132.714C99.6139 55.341 161.332 5.1796 238.623 27.2276C315.914 49.2757 366.158 110.994 344.11 188.285C322.062 265.576 260.425 315.819 183.052 293.771C105.761 271.723 55.5178 210.005 77.5659 132.714Z" stroke="#979797" stroke-opacity="0.5" stroke-width="0.2" stroke-miterlimit="10"/>
<path d="M72.5665 131.567C94.7785 53.7025 158.382 3.62311 236.247 25.7531C314.111 47.8831 364.191 111.568 341.979 189.433C319.767 267.298 256.164 317.377 178.299 295.165C100.434 272.954 50.3546 209.432 72.5665 131.567Z" stroke="#979797" stroke-opacity="0.5" stroke-width="0.2" stroke-miterlimit="10"/>
<path d="M67.4831 130.419C89.859 52.0625 155.347 1.98308 233.704 24.359C312.061 46.7349 362.14 112.223 339.764 190.58C317.47 268.937 251.982 318.934 173.543 296.64C95.1866 274.264 45.1892 208.776 67.4831 130.419Z" stroke="#979797" stroke-opacity="0.5" stroke-width="0.2" stroke-miterlimit="10"/>
<path d="M62.484 129.272C84.9418 50.342 152.315 0.426548 231.246 22.8844C310.176 45.3423 360.092 112.798 337.634 191.646C315.176 270.495 247.72 320.574 168.872 298.034C90.0235 275.494 39.9441 208.203 62.484 129.272Z" stroke="#979797" stroke-opacity="0.5" stroke-width="0.2" stroke-miterlimit="10"/>
<path d="M57.4032 128.125C80.025 48.7029 149.284 -1.21258 228.788 21.4912C308.292 44.1949 358.125 113.372 335.504 192.876C312.8 272.216 243.541 322.131 164.119 299.51C84.615 276.888 34.7815 207.547 57.4032 128.125Z" stroke="#979797" stroke-opacity="0.5" stroke-width="0.2" stroke-miterlimit="10"/>
<path d="M52.3192 126.977C75.1869 47.0632 146.331 -2.7703 226.245 20.0154C306.159 42.8011 356.074 114.027 333.288 193.941C310.503 273.855 239.277 323.688 159.363 300.903C79.449 278.117 29.5335 206.973 52.3192 126.977Z" stroke="#979797" stroke-opacity="0.5" stroke-width="0.2" stroke-miterlimit="10"/>
<path d="M47.3195 125.911C70.2691 45.4235 143.298 -4.32807 223.786 18.6216C304.273 41.5712 354.025 114.6 331.075 195.088C308.126 275.576 235.097 325.327 154.609 302.377C74.1214 279.428 24.3699 206.399 47.3195 125.911Z" stroke="#979797" stroke-opacity="0.5" stroke-width="0.2" stroke-miterlimit="10"/>
<path d="M42.239 124.764C65.3526 43.7029 140.349 -5.88471 221.328 17.1469C302.308 40.1785 351.977 115.175 328.946 196.236C305.914 277.297 230.836 326.885 149.856 303.771C68.877 280.658 19.2074 205.744 42.239 124.764Z" stroke="#979797" stroke-opacity="0.5" stroke-width="0.2" stroke-miterlimit="10"/>
<path d="M37.2383 123.617C60.5158 42.0634 137.315 -7.52424 218.868 15.7533C300.421 39.0307 350.009 115.83 326.732 197.383C303.454 278.936 226.655 328.524 145.102 305.247C63.5484 281.969 13.9608 205.17 37.2383 123.617Z" stroke="#979797" stroke-opacity="0.5" stroke-width="0.2" stroke-miterlimit="10"/>
<path d="M32.1582 122.469C55.5996 40.4243 134.366 -9.08131 216.411 14.2781C298.456 37.6376 347.962 116.404 324.602 198.449C301.243 280.494 222.394 330.082 140.349 306.64C58.3044 283.199 8.79875 204.514 32.1582 122.469Z" stroke="#979797" stroke-opacity="0.5" stroke-width="0.2" stroke-miterlimit="10"/>
<path d="M27.1563 121.322C50.6796 38.7032 131.331 -10.6385 213.95 12.8849C296.569 36.4083 345.992 117.06 322.387 199.679C298.864 282.297 218.212 331.721 135.593 308.116C53.0566 284.592 3.63288 203.941 27.1563 121.322Z" stroke="#979797" stroke-opacity="0.5" stroke-width="0.2" stroke-miterlimit="10"/>
<path d="M22.0766 120.174C45.7639 37.064 128.301 -12.2777 211.411 11.4096C294.522 35.0969 343.863 117.634 320.176 200.744C296.489 283.855 213.952 333.196 130.841 309.509C47.731 285.822 -1.61075 203.285 22.0766 120.174Z" stroke="#979797" stroke-opacity="0.5" stroke-width="0.2" stroke-miterlimit="10"/>
<path d="M17.0775 119.027C40.9287 35.4246 125.351 -13.8352 208.953 10.016C292.555 33.8673 341.815 118.289 318.046 201.973C294.194 285.576 209.772 334.835 126.088 310.984C42.486 287.133 -6.77378 202.711 17.0775 119.027Z" stroke="#979797" stroke-opacity="0.5" stroke-width="0.2" stroke-miterlimit="10"/>
<path d="M11.9953 117.879C36.0105 33.7852 122.318 -15.3926 206.494 8.54057C290.67 32.4738 339.847 118.863 315.832 203.039C291.817 287.215 205.51 336.393 121.334 312.377C37.158 288.362 -11.9379 202.055 11.9953 117.879Z" stroke="#979797" stroke-opacity="0.5" stroke-width="0.2" stroke-miterlimit="10"/>
<path d="M160.349 320C248.438 320 319.849 248.589 319.849 160.5C319.849 72.4106 248.438 1 160.349 1C72.2592 1 0.848633 72.4106 0.848633 160.5C0.848633 248.589 72.2592 320 160.349 320Z" stroke="#979797" stroke-opacity="0.5" stroke-width="0.2" stroke-miterlimit="10"/>
<path d="M663.907 21.1625L602.103 238.007L818.947 299.811L880.751 82.9667L663.907 21.1625Z" stroke="#979797" stroke-opacity="0.5" stroke-width="0.2" stroke-miterlimit="10"/>
<path d="M668.929 22.3097C668.766 22.8015 883.754 84.6016 883.263 84.4377C882.771 84.2738 820.971 299.263 821.135 298.771C821.299 298.279 606.31 236.479 606.802 236.643C607.375 236.725 669.093 21.736 668.929 22.3097Z" stroke="#979797" stroke-opacity="0.5" stroke-width="0.2" stroke-miterlimit="10"/>
<path d="M673.928 23.3755C673.6 24.441 886.704 86.0772 885.638 85.7493C884.573 85.4214 822.937 298.525 823.265 297.46C823.592 296.394 610.489 234.758 611.554 235.086C612.62 235.414 674.256 22.3919 673.928 23.3755Z" stroke="#979797" stroke-opacity="0.5" stroke-width="0.2" stroke-miterlimit="10"/>
<path d="M679.012 24.5232C678.602 26.0805 889.739 87.6347 888.182 87.2249C886.624 86.8151 825.07 297.952 825.48 296.394C825.89 294.837 614.753 233.283 616.31 233.693C617.868 234.185 679.422 22.9659 679.012 24.5232Z" stroke="#979797" stroke-opacity="0.5" stroke-width="0.2" stroke-miterlimit="10"/>
<path d="M684.094 25.6712C683.52 27.8022 892.771 89.2745 890.722 88.7007C888.591 88.127 827.119 297.379 827.693 295.329C828.267 293.198 619.015 231.726 621.064 232.3C623.113 232.874 684.667 23.6221 684.094 25.6712Z" stroke="#979797" stroke-opacity="0.5" stroke-width="0.2" stroke-miterlimit="10"/>
<path d="M689.092 26.8186C688.355 29.4414 895.721 90.8317 893.098 90.0941C890.475 89.3564 829.085 296.723 829.823 294.1C830.56 291.477 623.194 230.087 625.817 230.825C628.44 231.562 689.83 24.1958 689.092 26.8186Z" stroke="#979797" stroke-opacity="0.5" stroke-width="0.2" stroke-miterlimit="10"/>
<path d="M694.174 27.9656C693.272 31.1622 898.753 92.4705 895.639 91.5689C892.442 90.6673 831.134 296.149 832.035 293.034C832.937 289.837 627.456 228.529 630.57 229.431C633.685 230.332 695.075 24.7691 694.174 27.9656Z" stroke="#979797" stroke-opacity="0.5" stroke-width="0.2" stroke-miterlimit="10"/>
<path d="M699.175 29.114C698.109 32.8023 901.705 94.0287 898.099 92.9631C894.411 91.8976 833.184 295.494 834.25 291.887C835.315 288.199 631.719 226.973 635.326 228.038C639.014 229.022 700.24 25.4256 699.175 29.114Z" stroke="#979797" stroke-opacity="0.5" stroke-width="0.2" stroke-miterlimit="10"/>
<path d="M704.256 30.2609C703.027 34.4411 904.82 95.6674 900.558 94.438C896.378 93.2085 835.151 295.001 836.381 290.739C837.61 286.477 635.817 225.333 640.079 226.562C644.259 227.71 705.404 25.9989 704.256 30.2609Z" stroke="#979797" stroke-opacity="0.5" stroke-width="0.2" stroke-miterlimit="10"/>
<path d="M709.256 31.4077C707.944 36.1616 907.77 97.224 903.016 95.9126C898.262 94.6012 837.2 294.427 838.511 289.673C839.823 284.919 639.997 223.857 644.751 225.168C649.504 226.48 710.649 26.6539 709.256 31.4077Z" stroke="#979797" stroke-opacity="0.5" stroke-width="0.2" stroke-miterlimit="10"/>
<path d="M714.338 32.4735C712.862 37.7192 910.803 98.7816 905.476 97.2243C900.23 95.749 839.167 293.69 840.725 288.362C842.2 283.116 644.259 222.054 649.587 223.611C654.915 225.169 715.813 27.2279 714.338 32.4735Z" stroke="#979797" stroke-opacity="0.5" stroke-width="0.2" stroke-miterlimit="10"/>
<path d="M719.337 33.6216C717.698 39.441 913.754 100.339 907.934 98.7002C902.115 97.061 841.216 293.116 842.856 287.297C844.495 281.478 648.439 220.579 654.259 222.218C660.078 223.858 720.977 27.8842 719.337 33.6216Z" stroke="#979797" stroke-opacity="0.5" stroke-width="0.2" stroke-miterlimit="10"/>
<path d="M724.419 34.7688C722.616 41.0799 916.786 101.978 910.475 100.175C904.164 98.372 843.265 292.542 845.068 286.231C846.871 279.92 652.701 219.022 659.012 220.825C665.323 222.628 726.222 28.4576 724.419 34.7688Z" stroke="#979797" stroke-opacity="0.5" stroke-width="0.2" stroke-miterlimit="10"/>
<path d="M729.418 35.9167C727.451 42.7196 919.736 103.536 912.851 101.569C906.048 99.6019 845.232 291.887 847.199 285.002C849.166 278.117 656.881 217.383 663.766 219.35C670.651 221.317 731.385 29.1137 729.418 35.9167Z" stroke="#979797" stroke-opacity="0.5" stroke-width="0.2" stroke-miterlimit="10"/>
<path d="M734.5 37.0635C732.369 44.4402 922.769 105.093 915.392 103.044C908.016 100.913 847.363 291.313 849.412 283.936C851.543 276.559 661.143 215.907 668.52 217.956C675.897 220.005 736.549 29.6869 734.5 37.0635Z" stroke="#979797" stroke-opacity="0.5" stroke-width="0.2" stroke-miterlimit="10"/>
<path d="M739.5 38.2114C737.287 46.0799 925.72 106.732 917.852 104.437C909.984 102.224 849.331 290.657 851.626 282.789C853.839 274.921 665.406 214.268 673.274 216.563C681.143 218.776 741.795 30.261 739.5 38.2114Z" stroke="#979797" stroke-opacity="0.5" stroke-width="0.2" stroke-miterlimit="10"/>
<path d="M744.582 39.3582C742.205 47.8004 928.753 108.289 920.31 105.912C911.868 103.535 851.379 290.083 853.756 281.641C856.133 273.199 669.586 212.71 678.028 215.087C686.47 217.464 746.959 30.916 744.582 39.3582Z" stroke="#979797" stroke-opacity="0.5" stroke-width="0.2" stroke-miterlimit="10"/>
<path d="M749.58 40.5063C747.04 49.4402 931.702 109.929 922.768 107.388C913.834 104.847 853.346 289.51 855.887 280.576C858.427 271.642 673.765 211.153 682.699 213.694C691.715 216.153 752.203 31.4903 749.58 40.5063Z" stroke="#979797" stroke-opacity="0.5" stroke-width="0.2" stroke-miterlimit="10"/>
<path d="M754.663 41.5712C751.959 51.0789 934.736 111.404 925.228 108.699C915.721 105.994 855.396 288.772 858.101 279.264C860.806 269.756 678.028 209.431 687.536 212.136C696.962 214.923 757.368 32.1455 754.663 41.5712Z" stroke="#979797" stroke-opacity="0.5" stroke-width="0.2" stroke-miterlimit="10"/>
<path d="M759.746 42.7192C756.877 52.7187 937.769 113.043 927.77 110.175C917.77 107.306 857.445 288.198 860.314 278.199C863.183 268.199 682.291 207.875 692.29 210.743C702.208 213.612 762.532 32.7197 759.746 42.7192Z" stroke="#979797" stroke-opacity="0.5" stroke-width="0.2" stroke-miterlimit="10"/>
<path d="M764.744 43.8669C761.711 54.3582 940.718 114.601 930.227 111.65C919.736 108.618 859.493 287.625 862.444 277.134C865.476 266.642 686.469 206.4 696.96 209.35C707.534 212.301 767.776 33.3756 764.744 43.8669Z" stroke="#979797" stroke-opacity="0.5" stroke-width="0.2" stroke-miterlimit="10"/>
<path d="M769.826 45.0143C766.711 56.0793 943.751 116.24 932.686 113.044C921.621 109.929 861.46 286.969 864.657 275.904C867.771 264.839 690.731 204.678 701.796 207.875C712.779 211.071 772.94 33.9493 769.826 45.0143Z" stroke="#979797" stroke-opacity="0.5" stroke-width="0.2" stroke-miterlimit="10"/>
<path d="M774.826 46.1621C771.547 57.7189 946.702 117.798 935.145 114.519C923.588 111.241 863.509 286.396 866.788 274.839C870.066 263.282 694.912 203.203 706.468 206.482C718.025 209.76 778.104 34.6053 774.826 46.1621Z" stroke="#979797" stroke-opacity="0.5" stroke-width="0.2" stroke-miterlimit="10"/>
<path d="M779.908 47.3088C776.466 59.4393 949.735 119.436 937.687 115.912C925.638 112.387 865.56 285.739 869.084 273.691C872.526 261.56 699.257 201.563 711.305 205.088C723.354 208.448 783.351 35.1783 779.908 47.3088Z" stroke="#979797" stroke-opacity="0.5" stroke-width="0.2" stroke-miterlimit="10"/>
<path d="M784.907 48.4566C781.301 61.0789 952.685 120.994 940.063 117.388C927.441 113.781 867.526 285.166 871.132 272.543C874.739 259.921 703.354 200.006 715.976 203.613C728.599 207.219 788.514 35.8343 784.907 48.4566Z" stroke="#979797" stroke-opacity="0.5" stroke-width="0.2" stroke-miterlimit="10"/>
<path d="M789.99 49.5216C786.22 62.6357 955.719 122.469 942.605 118.78C929.491 115.092 869.658 284.51 873.346 271.395C877.035 258.281 707.617 198.448 720.731 202.137C733.845 205.907 793.678 36.4075 789.99 49.5216Z" stroke="#979797" stroke-opacity="0.5" stroke-width="0.2" stroke-miterlimit="10"/>
<path d="M794.989 50.6701C791.055 64.358 958.669 124.109 945.063 120.175C931.457 116.241 871.624 283.855 875.559 270.249C879.493 256.561 711.878 196.81 725.484 200.744C739.172 204.597 798.923 36.9823 794.989 50.6701Z" stroke="#979797" stroke-opacity="0.5" stroke-width="0.2" stroke-miterlimit="10"/>
<path d="M800.07 51.817C796.054 65.9966 961.701 125.666 947.522 121.649C933.342 117.633 873.673 283.28 877.689 269.101C881.706 254.921 716.058 195.252 730.238 199.268C744.417 203.367 804.087 37.6374 800.07 51.817Z" stroke="#979797" stroke-opacity="0.5" stroke-width="0.2" stroke-miterlimit="10"/>
<path d="M805.071 52.9645C800.891 67.7178 964.735 127.305 949.982 123.125C935.228 118.945 875.641 282.789 879.821 268.035C884.001 253.282 720.157 193.695 734.911 197.875C749.664 202.055 809.333 38.2111 805.071 52.9645Z" stroke="#979797" stroke-opacity="0.5" stroke-width="0.2" stroke-miterlimit="10"/>
<path d="M810.152 54.112C805.808 69.3571 967.767 128.862 952.44 124.518C937.195 120.174 877.689 282.133 882.034 266.806C886.378 251.561 724.419 192.056 739.746 196.4C754.991 200.744 814.496 38.8669 810.152 54.112Z" stroke="#979797" stroke-opacity="0.5" stroke-width="0.2" stroke-miterlimit="10"/>
<path d="M815.153 55.2594C810.645 71.0782 970.719 130.501 954.9 125.993C939.081 121.485 879.658 281.559 884.166 265.74C888.674 249.921 728.6 190.498 744.419 195.006C760.238 199.514 819.661 39.4405 815.153 55.2594Z" stroke="#979797" stroke-opacity="0.5" stroke-width="0.2" stroke-miterlimit="10"/>
<path d="M820.234 56.4066C815.562 72.7172 973.751 132.058 957.44 127.387C941.13 122.715 881.788 280.903 886.46 264.593C891.132 248.282 732.862 188.941 749.172 193.531C765.483 198.203 824.906 40.096 820.234 56.4066Z" stroke="#979797" stroke-opacity="0.5" stroke-width="0.2" stroke-miterlimit="10"/>
<path d="M825.233 57.5543C820.397 74.3567 976.701 133.698 959.816 128.862C943.014 124.026 883.673 280.33 888.509 263.445C893.344 246.561 737.041 187.302 753.925 192.138C770.81 196.891 830.069 40.6699 825.233 57.5543Z" stroke="#979797" stroke-opacity="0.5" stroke-width="0.2" stroke-miterlimit="10"/>
<path d="M830.315 58.62C825.397 75.9961 979.734 135.173 962.358 130.256C944.981 125.338 885.804 279.674 890.722 262.298C895.64 244.922 741.303 185.745 758.68 190.662C776.056 195.58 835.233 41.3258 830.315 58.62Z" stroke="#979797" stroke-opacity="0.5" stroke-width="0.2" stroke-miterlimit="10"/>
<path d="M835.316 59.7677C830.234 77.6357 982.685 136.813 964.817 131.649C946.949 126.568 887.772 279.019 892.936 261.151C898.099 243.283 745.566 184.106 763.434 189.269C781.302 194.351 840.479 41.8998 835.316 59.7677Z" stroke="#979797" stroke-opacity="0.5" stroke-width="0.2" stroke-miterlimit="10"/>
<path d="M840.395 60.9154C835.15 79.357 985.716 138.37 967.274 133.125C948.832 127.879 889.819 278.445 895.064 260.003C900.31 241.562 749.744 182.548 768.186 187.794C786.627 193.04 845.641 42.5557 840.395 60.9154Z" stroke="#979797" stroke-opacity="0.5" stroke-width="0.2" stroke-miterlimit="10"/>
<path d="M845.478 62.0628C840.069 80.9962 988.75 139.928 969.816 134.6C950.883 129.19 891.951 277.871 897.279 258.938C902.688 240.004 754.008 181.073 772.941 186.401C791.874 191.81 850.806 43.1293 845.478 62.0628Z" stroke="#979797" stroke-opacity="0.5" stroke-width="0.2" stroke-miterlimit="10"/>
<path d="M850.478 63.2104C844.905 82.6356 991.701 141.567 972.193 135.994C952.768 130.42 893.837 277.216 899.41 257.709C904.984 238.283 758.188 179.352 777.695 184.925C797.121 190.499 856.052 43.7032 850.478 63.2104Z" stroke="#979797" stroke-opacity="0.5" stroke-width="0.2" stroke-miterlimit="10"/>
<path d="M855.56 64.3572C849.822 84.3562 994.733 143.124 974.734 137.468C954.735 131.731 895.967 276.641 901.623 256.642C907.36 236.643 762.45 177.876 782.449 183.531C802.448 189.187 861.215 44.3582 855.56 64.3572Z" stroke="#979797" stroke-opacity="0.5" stroke-width="0.2" stroke-miterlimit="10"/>
<path d="M860.56 65.5044C854.741 85.9952 997.684 144.763 977.194 138.861C956.703 133.042 897.936 275.985 903.837 255.495C909.656 235.004 766.713 176.236 787.203 182.138C807.694 187.957 866.38 44.9317 860.56 65.5044Z" stroke="#979797" stroke-opacity="0.5" stroke-width="0.2" stroke-miterlimit="10"/>
<path d="M865.641 66.6523C859.658 87.7168 1000.72 146.32 979.651 140.337C958.587 134.354 899.983 275.412 905.967 254.348C911.95 233.283 770.892 174.68 791.956 180.663C812.939 186.646 871.624 45.5878 865.641 66.6523Z" stroke="#979797" stroke-opacity="0.5" stroke-width="0.2" stroke-miterlimit="10"/>
<path d="M870.642 67.718C864.495 89.2743 1003.67 147.878 982.111 141.731C960.555 135.583 901.952 274.757 908.099 253.2C914.246 231.644 775.073 173.04 796.629 179.188C818.267 185.335 876.789 46.1617 870.642 67.718Z" stroke="#979797" stroke-opacity="0.5" stroke-width="0.2" stroke-miterlimit="10"/>
<path d="M875.723 68.8658C869.412 90.9958 1006.7 149.435 984.652 143.124C962.522 136.813 904.082 274.101 910.393 252.053C916.705 229.923 779.417 171.483 801.465 177.795C823.513 184.106 882.034 46.8177 875.723 68.8658Z" stroke="#979797" stroke-opacity="0.5" stroke-width="0.2" stroke-miterlimit="10"/>
<path d="M880.724 70.0127C874.248 92.6345 1009.65 151.074 987.03 144.599C964.408 138.124 905.968 273.527 912.443 250.905C918.918 228.283 783.515 169.926 806.137 176.319C828.759 182.794 887.199 47.3909 880.724 70.0127Z" stroke="#979797" stroke-opacity="0.5" stroke-width="0.2" stroke-miterlimit="10"/>
<path d="M885.804 71.1601C879.247 94.2737 1012.68 152.631 989.569 146.074C966.456 139.517 908.098 272.953 914.655 249.839C921.212 226.726 787.776 168.368 810.89 174.925C834.086 181.482 892.361 48.0466 885.804 71.1601Z" stroke="#979797" stroke-opacity="0.5" stroke-width="0.2" stroke-miterlimit="10"/>
<path d="M890.803 72.3082C884.082 95.9955 1015.63 154.271 992.027 147.468C968.34 140.747 910.064 272.298 916.867 248.693C923.588 225.005 792.037 166.73 815.643 173.533C839.33 180.254 897.606 48.6209 890.803 72.3082Z" stroke="#979797" stroke-opacity="0.5" stroke-width="0.2" stroke-miterlimit="10"/>
<path d="M895.884 73.4548C888.999 97.6339 1018.66 155.828 994.486 148.943C970.307 142.058 912.113 271.723 918.998 247.544C925.883 223.365 796.217 165.171 820.396 172.056C844.576 178.941 902.769 49.2757 895.884 73.4548Z" stroke="#979797" stroke-opacity="0.5" stroke-width="0.2" stroke-miterlimit="10"/>
<path d="M900.886 74.603C893.837 99.3558 1021.62 157.386 996.947 150.337C972.194 143.288 914.164 271.068 921.213 246.397C928.262 221.645 800.482 163.615 825.153 170.664C849.905 177.63 907.935 49.8502 900.886 74.603Z" stroke="#979797" stroke-opacity="0.5" stroke-width="0.2" stroke-miterlimit="10"/>
<path d="M905.966 75.7497C898.754 100.994 1024.65 159.024 999.404 151.811C974.16 144.599 916.13 270.494 923.343 245.249C930.555 220.005 804.66 161.975 829.905 169.188C855.149 176.4 913.179 50.4231 905.966 75.7497Z" stroke="#979797" stroke-opacity="0.5" stroke-width="0.2" stroke-miterlimit="10"/>
<path d="M910.965 76.8157C903.589 102.634 1027.68 160.5 1001.86 153.205C976.044 145.829 918.178 269.92 925.473 244.102C932.768 218.284 808.758 160.418 834.576 167.713C860.394 175.089 918.342 51.0793 910.965 76.8157Z" stroke="#979797" stroke-opacity="0.5" stroke-width="0.2" stroke-miterlimit="10"/>
<path d="M916.048 77.9634C908.589 104.273 1030.71 162.139 1004.4 154.599C978.094 147.14 920.228 269.265 927.768 242.955C935.309 216.645 813.102 158.779 839.412 166.319C865.722 173.778 923.506 51.6533 916.048 77.9634Z" stroke="#979797" stroke-opacity="0.5" stroke-width="0.2" stroke-miterlimit="10"/>
<path d="M921.129 79.1105C913.506 105.912 1033.75 163.696 1006.86 156.074C980.06 148.451 922.276 268.691 929.899 241.807C937.521 214.923 817.281 157.221 844.165 164.844C870.967 172.548 928.751 52.3086 921.129 79.1105Z" stroke="#979797" stroke-opacity="0.5" stroke-width="0.2" stroke-miterlimit="10"/>
<path d="M926.13 80.258C918.343 107.634 1036.7 165.336 1009.32 157.549C981.947 149.763 924.245 268.117 932.031 240.742C939.818 213.366 821.463 155.664 848.839 163.45C876.214 171.237 933.916 52.8824 926.13 80.258Z" stroke="#979797" stroke-opacity="0.5" stroke-width="0.2" stroke-miterlimit="10"/>
<path d="M931.212 81.4056C923.261 109.273 1039.73 166.893 1011.86 158.943C983.996 150.992 926.376 267.462 934.326 239.594C942.277 211.727 825.807 154.107 853.675 162.057C881.542 169.926 939.162 53.5382 931.212 81.4056Z" stroke="#979797" stroke-opacity="0.5" stroke-width="0.2" stroke-miterlimit="10"/>
<path d="M936.211 82.5535C928.097 110.995 1042.68 168.533 1014.24 160.418C985.798 152.304 928.26 266.888 936.375 238.447C944.489 210.006 829.905 152.468 858.346 160.582C886.787 168.697 944.325 54.1124 936.211 82.5535Z" stroke="#979797" stroke-opacity="0.5" stroke-width="0.2" stroke-miterlimit="10"/>
<path d="M941.293 83.7006C933.015 112.634 1045.71 170.09 1016.78 161.893C987.848 153.615 930.392 266.314 938.589 237.381C946.867 208.448 834.168 150.992 863.101 159.189C892.034 167.385 949.49 54.7677 941.293 83.7006Z" stroke="#979797" stroke-opacity="0.5" stroke-width="0.2" stroke-miterlimit="10"/>
<path d="M946.291 84.7661C937.931 114.191 1048.66 171.647 1019.16 163.205C989.731 154.845 932.275 265.577 940.717 236.07C949.16 206.563 838.346 149.189 867.852 157.631C897.359 166.073 954.733 55.3414 946.291 84.7661Z" stroke="#979797" stroke-opacity="0.5" stroke-width="0.2" stroke-miterlimit="10"/>
<path d="M951.374 85.9141C942.85 115.913 1051.7 173.205 1021.7 164.68C991.7 156.156 934.408 265.003 942.932 235.005C951.456 205.006 842.609 147.714 872.608 156.238C902.606 164.844 959.898 55.9976 951.374 85.9141Z" stroke="#979797" stroke-opacity="0.5" stroke-width="0.2" stroke-miterlimit="10"/>
<path d="M956.374 87.0613C947.686 117.552 1054.65 174.762 1024.16 166.074C993.667 157.386 936.457 264.347 945.145 233.857C953.833 203.367 846.872 146.157 877.362 154.845C907.852 163.533 965.062 56.5711 956.374 87.0613Z" stroke="#979797" stroke-opacity="0.5" stroke-width="0.2" stroke-miterlimit="10"/>
<path d="M961.456 88.2084C952.604 119.272 1057.68 176.401 1026.62 167.549C995.553 158.697 938.425 263.773 947.277 232.709C956.129 201.645 851.052 144.517 882.116 153.369C913.098 162.221 970.308 57.1444 961.456 88.2084Z" stroke="#979797" stroke-opacity="0.5" stroke-width="0.2" stroke-miterlimit="10"/>
<path d="M966.456 89.3561C957.44 120.912 1060.63 177.958 1029.08 169.024C997.52 160.008 940.474 263.2 949.408 231.644C958.424 200.088 855.232 143.042 886.788 151.976C918.426 160.992 975.472 57.8004 966.456 89.3561Z" stroke="#979797" stroke-opacity="0.5" stroke-width="0.2" stroke-miterlimit="10"/>
<path d="M971.537 90.5035C962.357 122.633 1063.66 179.597 1031.62 170.417C999.486 161.238 942.522 262.544 951.702 230.496C960.881 198.367 859.575 141.402 891.623 150.582C923.67 159.762 980.635 58.374 971.537 90.5035Z" stroke="#979797" stroke-opacity="0.5" stroke-width="0.2" stroke-miterlimit="10"/>
<path d="M976.536 91.6517C967.275 124.273 1066.61 181.155 1033.99 171.894C1001.37 162.632 944.489 261.971 953.751 229.35C963.012 196.728 863.673 139.846 896.295 149.108C928.916 158.37 985.88 59.0305 976.536 91.6517Z" stroke="#979797" stroke-opacity="0.5" stroke-width="0.2" stroke-miterlimit="10"/>
<path d="M981.619 92.7991C972.193 125.912 1069.65 182.794 1036.53 173.369C1003.42 163.943 946.539 261.397 955.964 228.284C965.39 195.171 867.936 138.289 901.049 147.714C934.244 157.14 991.044 59.6041 981.619 92.7991Z" stroke="#979797" stroke-opacity="0.5" stroke-width="0.2" stroke-miterlimit="10"/>
<path d="M986.619 93.8639C977.03 127.551 1072.6 184.269 1038.99 174.679C1005.31 165.09 948.589 260.659 958.178 227.054C967.768 193.449 872.199 136.649 905.804 146.238C939.491 155.828 996.291 60.259 986.619 93.8639Z" stroke="#979797" stroke-opacity="0.5" stroke-width="0.2" stroke-miterlimit="10"/>
<path d="M991.7 95.0114C981.947 129.19 1075.63 185.908 1041.45 176.155C1007.27 166.401 950.555 260.085 960.309 225.906C970.062 191.728 876.379 135.009 910.557 144.763C944.736 154.517 1001.45 60.8329 991.7 95.0114Z" stroke="#979797" stroke-opacity="0.5" stroke-width="0.2" stroke-miterlimit="10"/>
<path d="M996.781 96.1585C986.863 130.911 1078.66 187.465 1043.99 177.548C1009.32 167.63 952.685 259.429 962.602 224.758C972.52 190.006 880.721 133.452 915.392 143.369C950.062 153.287 1006.62 61.4882 996.781 96.1585Z" stroke="#979797" stroke-opacity="0.5" stroke-width="0.2" stroke-miterlimit="10"/>
<path d="M1001.78 97.3063C991.699 132.55 1081.61 189.105 1046.37 179.023C1011.12 168.942 954.57 258.855 964.652 223.611C974.733 188.367 884.82 131.813 920.064 141.894C955.308 151.976 1011.86 62.0622 1001.78 97.3063Z" stroke="#979797" stroke-opacity="0.5" stroke-width="0.2" stroke-miterlimit="10"/>
<path d="M1006.86 98.4537C996.7 134.19 1084.65 190.662 1048.91 180.499C1013.17 170.335 956.702 258.281 966.865 222.546C977.028 186.81 889.082 130.337 924.818 140.501C960.554 150.664 1017.03 62.6358 1006.86 98.4537Z" stroke="#979797" stroke-opacity="0.5" stroke-width="0.2" stroke-miterlimit="10"/>
<path d="M1011.86 99.6019C1001.54 135.912 1087.68 192.22 1051.37 181.893C1015.06 171.565 958.752 257.709 969.079 221.399C979.406 185.089 893.263 128.781 929.573 139.108C965.882 149.435 1022.19 63.2923 1011.86 99.6019Z" stroke="#979797" stroke-opacity="0.5" stroke-width="0.2" stroke-miterlimit="10"/>
<path d="M1016.94 100.748C1006.45 137.55 1090.71 193.858 1053.83 183.367C1016.94 172.876 960.718 257.134 971.209 220.251C981.701 183.449 897.443 127.141 934.326 137.632C971.127 148.123 1027.44 63.8651 1016.94 100.748Z" stroke="#979797" stroke-opacity="0.5" stroke-width="0.2" stroke-miterlimit="10"/>
<path d="M1021.94 101.896C1011.29 139.271 1093.66 195.416 1056.29 184.843C1018.91 174.27 962.767 256.56 973.34 219.185C983.995 181.81 901.622 125.665 938.997 136.239C976.373 146.812 1032.6 64.5211 1021.94 101.896Z" stroke="#979797" stroke-opacity="0.5" stroke-width="0.2" stroke-miterlimit="10"/>
<path d="M1027.03 102.962C1016.21 140.829 1096.69 196.974 1058.83 186.155C1020.96 175.336 964.816 255.823 975.635 217.956C986.454 180.089 905.966 123.945 943.833 134.764C981.7 145.583 1037.76 65.0954 1027.03 102.962Z" stroke="#979797" stroke-opacity="0.5" stroke-width="0.2" stroke-miterlimit="10"/>
<path d="M1032.02 104.11C1021.04 142.55 1099.64 198.531 1061.2 187.63C1022.76 176.647 966.782 255.249 977.683 216.809C988.666 178.368 910.064 122.387 948.505 133.289C986.945 144.272 1043.01 65.751 1032.02 104.11Z" stroke="#979797" stroke-opacity="0.5" stroke-width="0.2" stroke-miterlimit="10"/>
<path d="M1037.11 105.257C1026.04 144.189 1102.68 200.17 1063.75 189.023C1024.81 177.876 968.833 254.593 979.98 215.661C991.127 176.729 914.409 120.748 953.342 131.895C992.274 143.042 1048.17 66.3244 1037.11 105.257Z" stroke="#979797" stroke-opacity="0.5" stroke-width="0.2" stroke-miterlimit="10"/>
<path d="M1042.11 106.405C1030.88 145.829 1105.63 201.728 1066.12 190.499C1026.61 179.27 970.798 254.02 982.027 214.514C993.256 175.008 918.506 119.191 958.012 130.42C997.518 141.649 1053.42 66.9804 1042.11 106.405Z" stroke="#979797" stroke-opacity="0.5" stroke-width="0.2" stroke-miterlimit="10"/>
<path d="M1047.19 107.552C1035.8 147.55 1108.66 203.367 1068.66 191.974C1028.67 180.581 972.849 253.447 984.242 213.449C995.635 173.451 922.77 117.634 962.768 129.027C1002.77 140.42 1058.58 67.5545 1047.19 107.552Z" stroke="#979797" stroke-opacity="0.5" stroke-width="0.2" stroke-miterlimit="10"/>
<path d="M1052.19 108.699C1040.63 149.189 1111.61 204.924 1071.12 193.367C1030.63 181.81 974.899 252.79 986.456 212.3C998.012 171.811 927.032 116.076 967.522 127.633C1008.01 139.107 1063.75 68.2093 1052.19 108.699Z" stroke="#979797" stroke-opacity="0.5" stroke-width="0.2" stroke-miterlimit="10"/>
<path d="M1057.27 109.847C1045.55 150.91 1114.64 206.563 1073.58 194.843C1032.52 183.122 976.865 252.217 988.586 211.153C1000.31 170.09 931.211 114.437 972.275 126.158C1013.34 137.878 1068.99 68.7835 1057.27 109.847Z" stroke="#979797" stroke-opacity="0.5" stroke-width="0.2" stroke-miterlimit="10"/>
<path d="M1062.27 110.994C1050.47 152.549 1117.6 208.12 1076.04 196.318C1034.49 184.515 978.914 251.643 990.717 210.087C1002.52 168.532 935.392 112.961 976.947 124.764C1018.58 136.567 1074.16 69.3569 1062.27 110.994Z" stroke="#979797" stroke-opacity="0.5" stroke-width="0.2" stroke-miterlimit="10"/>
<path d="M1067.35 112.059C1055.39 154.106 1120.63 209.595 1078.58 197.628C1036.53 185.662 981.046 250.904 993.012 208.857C1004.98 166.81 939.736 111.321 981.783 123.288C1023.83 135.255 1079.32 70.0121 1067.35 112.059Z" stroke="#979797" stroke-opacity="0.5" stroke-width="0.2" stroke-miterlimit="10"/>
<path d="M1072.43 113.207C1060.3 155.828 1123.66 211.235 1081.04 199.104C1038.42 186.974 983.012 250.331 995.143 207.71C1007.27 165.09 943.916 109.683 986.536 121.813C1029.16 134.026 1084.56 70.5863 1072.43 113.207Z" stroke="#979797" stroke-opacity="0.5" stroke-width="0.2" stroke-miterlimit="10"/>
<path d="M1077.43 114.355C1065.14 157.467 1126.61 212.792 1083.5 200.498C1040.39 188.203 985.06 249.676 997.355 206.563C1009.65 163.45 948.177 108.125 991.29 120.42C1034.4 132.714 1089.73 71.2421 1077.43 114.355Z" stroke="#979797" stroke-opacity="0.5" stroke-width="0.2" stroke-miterlimit="10"/>
<path d="M1082.51 115.502C1070.06 159.188 1129.64 214.431 1085.96 201.973C1042.27 189.514 987.027 249.101 999.485 205.415C1011.94 161.729 952.357 106.486 996.043 118.944C1039.65 131.402 1094.89 71.8153 1082.51 115.502Z" stroke="#979797" stroke-opacity="0.5" stroke-width="0.2" stroke-miterlimit="10"/>
<path d="M1087.52 116.65C1074.89 160.828 1132.6 215.989 1088.42 203.449C1044.24 190.826 989.078 248.528 1001.62 204.35C1014.24 160.172 956.539 105.011 1000.72 117.552C1044.98 130.174 1100.14 72.4719 1087.52 116.65Z" stroke="#979797" stroke-opacity="0.5" stroke-width="0.2" stroke-miterlimit="10"/>
<path d="M1092.6 117.797C1079.89 162.549 1135.63 217.628 1090.96 204.842C1046.21 192.138 991.127 247.873 1003.91 203.203C1016.62 158.451 960.883 103.372 1005.55 116.158C1050.22 128.944 1105.3 73.0457 1092.6 117.797Z" stroke="#979797" stroke-opacity="0.5" stroke-width="0.2" stroke-miterlimit="10"/>
<path d="M1097.59 118.945C1084.73 164.188 1138.58 219.186 1093.33 206.317C1048.09 193.449 993.092 247.299 1005.96 202.055C1018.83 156.812 964.979 101.815 1010.22 114.683C1055.47 127.551 1110.46 73.7012 1097.59 118.945Z" stroke="#979797" stroke-opacity="0.5" stroke-width="0.2" stroke-miterlimit="10"/>
<path d="M1102.68 120.092C1089.64 165.828 1141.61 220.825 1095.87 207.793C1050.14 194.761 995.141 246.725 1008.17 200.99C1021.21 155.255 969.241 100.257 1014.98 113.29C1060.71 126.322 1115.71 74.2751 1102.68 120.092Z" stroke="#979797" stroke-opacity="0.5" stroke-width="0.2" stroke-miterlimit="10"/>
<path d="M1107.68 121.158C1094.48 167.467 1144.56 222.3 1098.34 209.104C1052.03 195.908 997.193 245.987 1010.39 199.76C1023.59 153.451 973.506 98.6177 1019.73 111.814C1065.96 125.01 1120.88 74.9304 1107.68 121.158Z" stroke="#979797" stroke-opacity="0.5" stroke-width="0.2" stroke-miterlimit="10"/>
<path d="M1112.76 122.306C1099.4 169.107 1147.68 223.94 1100.79 210.58C1053.99 197.22 999.16 245.496 1012.52 198.613C1025.88 151.73 977.603 96.9791 1024.49 110.339C1071.37 123.699 1126.12 75.5048 1112.76 122.306Z" stroke="#979797" stroke-opacity="0.5" stroke-width="0.2" stroke-miterlimit="10"/>
<path d="M1117.76 123.453C1104.23 170.827 1150.63 225.497 1103.25 211.973C1055.88 198.449 1001.21 244.84 1014.73 197.465C1028.25 150.091 981.863 95.4214 1029.24 108.945C1076.61 122.469 1131.28 76.0782 1117.76 123.453Z" stroke="#979797" stroke-opacity="0.5" stroke-width="0.2" stroke-miterlimit="10"/>
<path d="M1122.84 124.6C1109.23 172.467 1153.66 227.054 1105.79 213.448C1057.93 199.843 1003.34 244.266 1016.94 196.4C1030.55 148.534 986.126 93.9463 1033.99 107.552C1081.86 121.158 1136.45 76.7341 1122.84 124.6Z" stroke="#979797" stroke-opacity="0.5" stroke-width="0.2" stroke-miterlimit="10"/>
<path d="M1127.84 125.748C1114.07 174.188 1156.61 228.694 1108.17 214.924C1059.73 201.154 1005.22 243.693 1018.99 195.253C1032.76 146.813 990.224 92.3073 1038.66 106.077C1087.1 119.847 1141.69 77.308 1127.84 125.748Z" stroke="#979797" stroke-opacity="0.5" stroke-width="0.2" stroke-miterlimit="10"/>
<path d="M1132.92 126.895C1118.99 175.827 1159.64 230.25 1110.71 216.317C1061.78 202.383 1007.27 243.037 1021.21 194.105C1035.14 145.173 994.487 90.7495 1043.42 104.683C1092.35 118.617 1146.86 77.9632 1132.92 126.895Z" stroke="#979797" stroke-opacity="0.5" stroke-width="0.2" stroke-miterlimit="10"/>
<path d="M1137.92 128.042C1123.82 177.466 1162.59 231.889 1113.09 217.791C1063.58 203.694 1009.24 242.462 1023.34 192.957C1037.43 143.533 998.666 89.1096 1048.17 103.207C1097.68 117.305 1152.02 78.5363 1137.92 128.042Z" stroke="#979797" stroke-opacity="0.5" stroke-width="0.2" stroke-miterlimit="10"/>
<path d="M1143 129.109C1128.74 179.106 1165.62 233.366 1115.63 219.186C1065.63 204.924 1011.37 241.808 1025.55 191.81C1039.81 141.813 1002.93 87.5535 1052.93 101.733C1102.92 115.913 1157.26 79.1933 1143 129.109Z" stroke="#979797" stroke-opacity="0.5" stroke-width="0.2" stroke-miterlimit="10"/>
<path d="M1148.09 130.255C1133.66 180.744 1168.66 235.004 1118.17 220.578C1067.68 206.153 1013.42 241.151 1027.85 190.662C1042.27 140.173 1007.27 85.9132 1057.76 100.339C1108.25 114.764 1162.43 79.7659 1148.09 130.255Z" stroke="#979797" stroke-opacity="0.5" stroke-width="0.2" stroke-miterlimit="10"/>
<path d="M1153.08 131.404C1138.58 182.466 1171.61 236.562 1120.55 222.055C1069.48 207.547 1015.39 240.578 1029.89 189.515C1044.4 138.452 1011.37 84.3567 1062.43 98.8642C1113.5 113.372 1167.59 80.4225 1153.08 131.404Z" stroke="#979797" stroke-opacity="0.5" stroke-width="0.2" stroke-miterlimit="10"/>
<path d="M1158.17 132.55C1143.49 184.105 1174.64 238.201 1123.09 223.447C1071.53 208.694 1017.44 239.922 1032.19 188.367C1046.86 136.812 1015.71 82.7167 1067.27 97.4701C1118.82 112.223 1172.84 80.9955 1158.17 132.55Z" stroke="#979797" stroke-opacity="0.5" stroke-width="0.2" stroke-miterlimit="10"/>
<path d="M1163.17 133.697C1148.33 185.744 1177.59 239.758 1125.55 224.922C1073.5 210.087 1019.49 239.348 1034.32 187.301C1049.16 135.255 1019.9 81.2411 1071.94 96.0764C1123.99 110.912 1178 81.6509 1163.17 133.697Z" stroke="#979797" stroke-opacity="0.5" stroke-width="0.2" stroke-miterlimit="10"/>
<path d="M1168.25 134.845C1153.25 187.466 1180.63 241.397 1128.01 226.398C1075.39 211.399 1021.45 238.774 1036.45 186.154C1051.45 133.534 1024.08 79.6023 1076.7 94.6015C1129.32 109.601 1183.25 82.2251 1168.25 134.845Z" stroke="#979797" stroke-opacity="0.5" stroke-width="0.2" stroke-miterlimit="10"/>
<path d="M1173.25 135.993C1158.08 189.105 1183.58 242.955 1130.46 227.791C1077.35 212.628 1023.5 238.119 1038.66 185.007C1053.83 131.895 1028.34 78.0451 1081.45 93.2082C1134.56 108.289 1188.41 82.7989 1173.25 135.993Z" stroke="#979797" stroke-opacity="0.5" stroke-width="0.2" stroke-miterlimit="10"/>
<path d="M1178.33 137.141C1163 190.827 1186.61 244.594 1132.92 229.267C1079.24 213.94 1025.47 237.545 1040.8 183.86C1056.12 130.174 1032.52 76.4062 1086.2 91.7333C1139.81 107.06 1193.58 83.455 1178.33 137.141Z" stroke="#979797" stroke-opacity="0.5" stroke-width="0.2" stroke-miterlimit="10"/>
<path d="M1183.33 138.206C1167.92 192.383 1189.56 246.069 1135.38 230.66C1081.2 215.251 1027.52 236.889 1042.93 182.712C1058.33 128.534 1036.7 74.8485 1090.87 90.2575C1145.13 105.749 1198.82 84.0283 1183.33 138.206Z" stroke="#979797" stroke-opacity="0.5" stroke-width="0.2" stroke-miterlimit="10"/>
<path d="M1188.41 139.354C1172.84 194.105 1192.59 247.627 1137.92 232.054C1083.17 216.481 1029.65 236.234 1045.22 181.565C1060.79 126.813 1041.04 73.2917 1095.71 88.8646C1150.38 104.438 1203.98 84.6845 1188.41 139.354Z" stroke="#979797" stroke-opacity="0.5" stroke-width="0.2" stroke-miterlimit="10"/>
<path d="M1193.41 140.502C1177.67 195.745 1195.54 249.267 1140.3 233.53C1085.06 217.793 1031.53 235.661 1047.27 180.418C1063.01 125.175 1045.14 71.6528 1100.38 87.3897C1155.63 103.209 1209.15 85.2587 1193.41 140.502Z" stroke="#979797" stroke-opacity="0.5" stroke-width="0.2" stroke-miterlimit="10"/>
<path d="M1198.49 141.649C1182.59 197.383 1198.57 250.823 1142.84 234.922C1087.11 219.022 1033.67 235.004 1049.57 179.27C1065.47 123.535 1049.48 70.0948 1105.22 85.9956C1160.95 101.896 1214.39 85.9137 1198.49 141.649Z" stroke="#979797" stroke-opacity="0.5" stroke-width="0.2" stroke-miterlimit="10"/>
<path d="M1203.49 142.796C1187.43 199.105 1201.52 252.463 1145.3 236.398C1088.99 220.333 1035.63 234.431 1051.7 178.204C1067.76 121.978 1053.66 68.5378 1109.89 84.6025C1166.12 100.667 1219.56 86.4877 1203.49 142.796Z" stroke="#979797" stroke-opacity="0.5" stroke-width="0.2" stroke-miterlimit="10"/>
<path d="M1208.57 143.944C1192.35 200.744 1204.56 254.02 1147.76 237.873C1090.96 221.645 1037.68 233.857 1053.83 177.057C1069.97 120.256 1057.84 66.9805 1114.64 83.1272C1171.45 99.2739 1224.72 87.1434 1208.57 143.944Z" stroke="#979797" stroke-opacity="0.5" stroke-width="0.2" stroke-miterlimit="10"/>
<path d="M1213.57 145.09C1197.26 202.464 1207.59 255.658 1150.22 239.266C1092.84 222.955 1039.65 233.282 1056.04 175.908C1072.35 118.534 1062.02 65.3402 1119.4 81.7328C1176.77 98.1254 1229.97 87.7161 1213.57 145.09Z" stroke="#979797" stroke-opacity="0.5" stroke-width="0.2" stroke-miterlimit="10"/>
<path d="M1218.66 146.239C1202.18 204.105 1210.62 257.217 1152.76 240.742C1094.89 224.268 1041.78 232.71 1058.25 174.844C1074.73 116.978 1066.29 63.8661 1124.15 80.3407C1182.02 96.7333 1235.13 88.373 1218.66 146.239Z" stroke="#979797" stroke-opacity="0.5" stroke-width="0.2" stroke-miterlimit="10"/>
<path d="M1223.74 147.304C1207.1 205.662 1213.66 258.774 1155.22 242.135C1096.86 225.497 1043.75 232.054 1060.38 173.614C1077.02 115.256 1070.47 62.1444 1128.91 78.7829C1187.26 95.5034 1240.38 88.9463 1223.74 147.304Z" stroke="#979797" stroke-opacity="0.5" stroke-width="0.2" stroke-miterlimit="10"/>
<path d="M1228.74 148.451C1211.93 207.382 1216.61 260.33 1157.68 243.528C1098.74 226.726 1045.8 231.397 1062.6 172.466C1079.4 113.535 1074.73 60.5865 1133.66 77.3889C1192.59 94.1913 1245.54 89.5194 1228.74 148.451Z" stroke="#979797" stroke-opacity="0.5" stroke-width="0.2" stroke-miterlimit="10"/>
<path d="M1233.82 149.599C1216.85 209.022 1219.64 261.97 1160.13 245.004C1100.71 228.037 1047.76 230.824 1064.73 171.319C1081.7 111.896 1078.91 58.9476 1138.41 75.914C1197.84 92.8803 1250.7 90.1755 1233.82 149.599Z" stroke="#979797" stroke-opacity="0.5" stroke-width="0.2" stroke-miterlimit="10"/>
<path d="M1238.82 150.747C1221.69 210.743 1222.59 263.528 1162.59 246.397C1102.6 229.267 1049.81 230.169 1066.94 170.172C1084.07 110.175 1083.17 57.3907 1143.17 74.521C1203.08 91.6512 1255.95 90.7496 1238.82 150.747Z" stroke="#979797" stroke-opacity="0.5" stroke-width="0.2" stroke-miterlimit="10"/>
<path d="M1243.9 151.894C1226.69 212.383 1225.62 265.085 1165.13 247.873C1104.65 230.661 1051.94 229.595 1069.16 169.107C1086.37 108.618 1087.43 55.9157 1147.92 73.1279C1208.41 90.3402 1261.11 91.4057 1243.9 151.894Z" stroke="#979797" stroke-opacity="0.5" stroke-width="0.2" stroke-miterlimit="10"/>
<path d="M1248.9 153.041C1231.52 214.103 1228.57 266.724 1167.51 249.348C1106.45 231.971 1053.83 229.021 1071.2 167.958C1088.58 106.896 1091.53 54.2756 1152.59 71.6518C1213.66 89.0279 1266.28 91.9786 1248.9 153.041Z" stroke="#979797" stroke-opacity="0.5" stroke-width="0.2" stroke-miterlimit="10"/>
<path d="M1253.98 154.188C1236.44 215.743 1231.61 268.281 1170.05 250.741C1108.5 233.201 1055.96 228.365 1073.5 166.811C1091.04 105.256 1095.79 52.7182 1157.35 70.2583C1218.9 87.7983 1271.52 92.6342 1253.98 154.188Z" stroke="#979797" stroke-opacity="0.5" stroke-width="0.2" stroke-miterlimit="10"/>
<path d="M1258.98 155.336C1241.28 217.382 1234.56 269.92 1172.51 252.216C1110.46 234.512 1057.93 227.791 1075.63 165.745C1093.33 103.699 1100.05 51.1611 1162.1 68.8651C1224.15 86.5691 1276.68 93.2081 1258.98 155.336Z" stroke="#979797" stroke-opacity="0.5" stroke-width="0.2" stroke-miterlimit="10"/>
<path d="M1264.06 156.402C1246.2 219.021 1237.59 271.396 1174.97 253.61C1112.35 235.742 1059.98 227.136 1077.76 164.516C1095.63 101.896 1104.24 49.5218 1166.85 67.3077C1229.47 85.0937 1281.85 93.8637 1264.06 156.402Z" stroke="#979797" stroke-opacity="0.5" stroke-width="0.2" stroke-miterlimit="10"/>
<path d="M1269.06 157.549C1251.11 220.661 1240.54 273.035 1177.43 255.003C1114.32 237.054 1061.94 226.48 1079.98 163.369C1098.01 100.257 1108.5 47.883 1171.61 65.9148C1234.72 83.9467 1287.1 94.438 1269.06 157.549Z" stroke="#979797" stroke-opacity="0.5" stroke-width="0.2" stroke-miterlimit="10"/>
<path d="M1274.14 158.697C1256.03 222.382 1243.57 274.592 1179.89 256.478C1116.2 238.365 1063.99 225.906 1082.1 162.221C1100.22 98.5357 1112.68 46.3253 1176.36 64.4391C1240.05 82.5529 1292.26 95.0933 1274.14 158.697Z" stroke="#979797" stroke-opacity="0.5" stroke-width="0.2" stroke-miterlimit="10"/>
<path d="M1279.14 159.845C1260.87 224.022 1246.52 276.232 1182.35 257.872C1118.17 239.595 1065.96 225.251 1084.32 161.074C1102.6 96.8971 1116.94 44.6867 1181.12 63.0464C1245.29 81.4061 1297.5 95.6676 1279.14 159.845Z" stroke="#979797" stroke-opacity="0.5" stroke-width="0.2" stroke-miterlimit="10"/>
<path d="M1284.23 160.991C1265.78 225.66 1249.56 277.788 1184.89 259.347C1120.22 240.905 1068.09 224.676 1086.53 160.008C1104.97 95.3389 1121.2 43.2104 1185.87 61.6521C1250.54 80.0938 1302.67 96.2405 1284.23 160.991Z" stroke="#979797" stroke-opacity="0.5" stroke-width="0.2" stroke-miterlimit="10"/>
<path d="M1289.23 162.139C1270.62 227.382 1252.51 279.428 1187.26 260.822C1122.02 242.217 1069.97 224.103 1088.58 158.861C1107.19 93.618 1125.3 41.5715 1190.54 60.1771C1255.87 78.7827 1307.83 96.8965 1289.23 162.139Z" stroke="#979797" stroke-opacity="0.5" stroke-width="0.2" stroke-miterlimit="10"/>
<path d="M1294.31 163.287C1275.54 229.021 1255.54 280.985 1189.8 262.216C1124.07 243.446 1072.11 223.447 1090.87 157.713C1109.64 91.9788 1129.64 40.0142 1195.38 58.7837C1261.11 77.4713 1313.08 97.4703 1294.31 163.287Z" stroke="#979797" stroke-opacity="0.5" stroke-width="0.2" stroke-miterlimit="10"/>
<path d="M1299.39 164.353C1280.54 230.661 1258.57 282.461 1192.35 263.61C1126.12 244.758 1074.24 222.792 1093.09 156.566C1111.94 90.3401 1133.91 38.4575 1200.13 57.309C1266.36 76.1605 1318.24 98.1265 1299.39 164.353Z" stroke="#979797" stroke-opacity="0.5" stroke-width="0.2" stroke-miterlimit="10"/>
<path d="M1304.39 165.5C1285.37 232.299 1261.52 284.1 1194.72 265.085C1127.92 246.069 1076.12 222.218 1095.14 155.418C1114.15 88.6182 1138 36.8176 1204.8 55.833C1271.6 74.8485 1323.4 98.6997 1304.39 165.5Z" stroke="#979797" stroke-opacity="0.5" stroke-width="0.2" stroke-miterlimit="10"/>
<path d="M1309.47 166.648C1290.29 234.021 1264.56 285.658 1197.26 266.478C1129.97 247.299 1078.25 221.563 1097.43 154.271C1116.61 86.8975 1142.35 35.2608 1209.64 54.4402C1276.93 73.6195 1328.65 99.3559 1309.47 166.648Z" stroke="#979797" stroke-opacity="0.5" stroke-width="0.2" stroke-miterlimit="10"/>
<path d="M1314.47 167.794C1295.13 235.66 1267.51 287.296 1199.72 267.953C1131.86 248.61 1080.22 220.988 1099.56 153.205C1118.91 85.4216 1146.53 33.7029 1214.31 53.0462C1282.1 72.3895 1333.81 99.929 1314.47 167.794Z" stroke="#979797" stroke-opacity="0.5" stroke-width="0.2" stroke-miterlimit="10"/>
<path d="M1319.55 168.942C1300.04 237.299 1270.62 288.854 1202.18 269.347C1133.74 249.84 1082.27 220.415 1101.78 151.976C1121.2 83.6187 1150.71 32.064 1219.07 51.5712C1287.42 71.0784 1338.98 100.585 1319.55 168.942Z" stroke="#979797" stroke-opacity="0.5" stroke-width="0.2" stroke-miterlimit="10"/>
<path d="M1324.55 170.09C1304.88 239.021 1273.57 290.493 1204.64 270.822C1135.71 251.151 1084.24 219.841 1103.91 150.91C1123.58 81.9795 1154.89 30.5068 1223.82 50.1779C1292.75 69.849 1344.22 101.159 1324.55 170.09Z" stroke="#979797" stroke-opacity="0.5" stroke-width="0.2" stroke-miterlimit="10"/>
<path d="M1329.64 171.237C1309.88 240.66 1276.6 292.05 1207.1 272.297C1137.6 252.544 1086.29 219.267 1106.04 149.763C1125.79 80.3401 1159.07 28.9493 1228.57 48.7023C1298.08 68.4554 1349.39 101.732 1329.64 171.237Z" stroke="#979797" stroke-opacity="0.5" stroke-width="0.2" stroke-miterlimit="10"/>
<path d="M1334.63 172.384C1314.71 242.381 1279.55 293.689 1209.56 273.691C1139.56 253.773 1088.25 218.611 1108.25 148.615C1128.25 78.6186 1163.33 27.3097 1233.33 47.3087C1303.32 67.3077 1354.55 102.388 1334.63 172.384Z" stroke="#979797" stroke-opacity="0.5" stroke-width="0.2" stroke-miterlimit="10"/>
<path d="M1339.72 173.45C1319.63 243.938 1282.59 295.165 1212.1 275.084C1141.61 255.003 1090.38 217.956 1110.46 147.468C1130.55 76.9795 1167.59 25.7527 1238.08 45.8336C1308.57 65.9145 1359.8 102.962 1339.72 173.45Z" stroke="#979797" stroke-opacity="0.5" stroke-width="0.2" stroke-miterlimit="10"/>
<path d="M1344.71 174.597C1324.47 245.577 1285.54 296.804 1214.47 276.559C1143.49 256.314 1092.27 217.382 1112.51 146.32C1132.76 75.3399 1171.69 24.113 1242.75 44.3579C1313.81 64.6847 1364.96 103.617 1344.71 174.597Z" stroke="#979797" stroke-opacity="0.5" stroke-width="0.2" stroke-miterlimit="10"/>
<path d="M1349.8 175.744C1329.39 247.298 1288.57 298.361 1217.02 277.952C1145.46 257.544 1094.4 216.726 1114.81 145.172C1135.22 73.6186 1176.03 22.5557 1247.59 42.9644C1319.14 63.3732 1370.2 104.191 1349.8 175.744Z" stroke="#979797" stroke-opacity="0.5" stroke-width="0.2" stroke-miterlimit="10"/>
<path d="M1354.8 176.893C1334.22 248.938 1291.52 299.919 1219.47 279.428C1147.43 258.856 1096.45 216.153 1116.94 144.108C1137.51 72.0621 1180.21 21.0811 1252.26 41.5719C1324.39 62.0626 1375.37 104.847 1354.8 176.893Z" stroke="#979797" stroke-opacity="0.5" stroke-width="0.2" stroke-miterlimit="10"/>
<path d="M1359.88 178.04C1339.22 250.659 1294.55 301.558 1221.94 280.821C1149.32 260.166 1098.42 215.497 1119.15 142.877C1139.81 70.2582 1184.48 19.3592 1257.1 40.0958C1329.63 60.8325 1380.53 105.42 1359.88 178.04Z" stroke="#979797" stroke-opacity="0.5" stroke-width="0.2" stroke-miterlimit="10"/>
<path d="M1364.88 179.188C1344.06 252.299 1297.5 303.116 1224.39 282.298C1151.28 261.479 1100.46 214.924 1121.28 141.813C1142.1 68.7021 1188.66 17.8851 1261.77 38.7037C1334.88 59.5223 1385.78 106.077 1364.88 179.188Z" stroke="#979797" stroke-opacity="0.5" stroke-width="0.2" stroke-miterlimit="10"/>
<path d="M1369.96 180.335C1348.98 254.02 1300.54 304.755 1226.85 283.772C1153.17 262.79 1102.43 214.35 1123.41 140.665C1144.4 66.9801 1192.84 16.245 1266.52 37.2275C1340.21 58.21 1390.94 106.65 1369.96 180.335Z" stroke="#979797" stroke-opacity="0.5" stroke-width="0.2" stroke-miterlimit="10"/>
<path d="M1374.96 181.482C1353.81 255.659 1303.49 306.312 1229.31 285.165C1155.13 264.019 1104.48 213.694 1125.63 139.517C1146.77 65.3407 1197.1 14.6876 1271.28 35.834C1345.45 56.9805 1396.11 107.306 1374.96 181.482Z" stroke="#979797" stroke-opacity="0.5" stroke-width="0.2" stroke-miterlimit="10"/>
<path d="M1380.04 182.548C1358.73 257.217 1306.52 307.87 1231.85 286.56C1157.18 265.249 1106.53 213.039 1127.84 138.37C1149.15 63.7021 1201.36 13.049 1276.03 34.3594C1350.7 55.6698 1401.35 107.88 1380.04 182.548Z" stroke="#979797" stroke-opacity="0.5" stroke-width="0.2" stroke-miterlimit="10"/>
<path d="M1385.12 183.696C1363.65 258.938 1309.55 309.427 1234.31 288.035C1159.07 266.561 1108.58 212.465 1129.97 137.223C1151.45 61.981 1205.54 11.4918 1280.78 32.8842C1356.03 54.3585 1406.52 108.454 1385.12 183.696Z" stroke="#979797" stroke-opacity="0.5" stroke-width="0.2" stroke-miterlimit="10"/>
<path d="M1390.12 184.843C1368.57 260.576 1312.5 311.066 1236.77 289.427C1161.04 267.871 1110.55 211.808 1132.18 136.075C1153.74 60.3408 1209.8 9.85164 1285.54 31.4899C1361.27 53.1281 1411.68 109.109 1390.12 184.843Z" stroke="#979797" stroke-opacity="0.5" stroke-width="0.2" stroke-miterlimit="10"/>
<path d="M1395.2 185.99C1373.48 262.298 1315.53 312.623 1239.31 290.903C1163 269.183 1112.68 211.235 1134.4 135.009C1156.12 58.7839 1214.06 8.37666 1290.29 30.0969C1366.52 51.817 1416.92 109.683 1395.2 185.99Z" stroke="#979797" stroke-opacity="0.5" stroke-width="0.2" stroke-miterlimit="10"/>
<path d="M1400.2 187.138C1378.32 263.938 1318.49 314.263 1241.69 292.297C1164.89 270.413 1114.56 210.58 1136.53 133.78C1158.41 56.981 1218.24 6.65571 1295.04 28.6218C1371.84 50.5059 1422.09 110.339 1400.2 187.138Z" stroke="#979797" stroke-opacity="0.5" stroke-width="0.2" stroke-miterlimit="10"/>
<path d="M1405.29 188.285C1383.24 265.659 1321.52 315.82 1244.23 293.772C1166.86 271.724 1116.69 210.006 1138.74 132.715C1160.79 55.4235 1222.43 5.18014 1299.8 27.2282C1377.09 49.2762 1427.33 110.912 1405.29 188.285Z" stroke="#979797" stroke-opacity="0.5" stroke-width="0.2" stroke-miterlimit="10"/>
<path d="M1410.29 189.433C1388.07 267.298 1324.47 317.377 1246.61 295.247C1168.74 273.035 1118.66 209.432 1140.79 131.567C1162.92 53.7021 1226.69 3.54073 1304.47 25.7527C1382.34 47.9647 1432.5 111.568 1410.29 189.433Z" stroke="#979797" stroke-opacity="0.5" stroke-width="0.2" stroke-miterlimit="10"/>
<path d="M1415.37 190.581C1392.99 268.938 1327.5 319.017 1249.15 296.641C1170.79 274.265 1120.71 208.777 1143.09 130.42C1165.46 52.0635 1230.95 1.98406 1309.31 24.36C1387.66 46.6539 1437.66 112.142 1415.37 190.581Z" stroke="#979797" stroke-opacity="0.5" stroke-width="0.2" stroke-miterlimit="10"/>
<path d="M1420.37 191.646C1397.91 270.577 1330.53 320.492 1251.6 298.034C1172.67 275.576 1122.76 208.203 1145.22 129.272C1167.67 50.342 1235.13 0.426548 1313.98 22.8844C1392.83 45.3423 1442.91 112.798 1420.37 191.646Z" stroke="#979797" stroke-opacity="0.5" stroke-width="0.2" stroke-miterlimit="10"/>
<path d="M1425.45 192.794C1402.83 272.216 1333.57 322.131 1254.06 299.509C1174.64 276.888 1124.73 207.629 1147.35 128.125C1169.97 48.6206 1239.31 -1.21288 1318.73 21.4909C1398.16 44.1946 1448.07 113.371 1425.45 192.794Z" stroke="#979797" stroke-opacity="0.5" stroke-width="0.2" stroke-miterlimit="10"/>
<path d="M1430.45 193.942C1407.66 273.937 1336.52 323.689 1256.52 300.903C1176.53 278.118 1126.78 206.974 1149.56 126.978C1172.35 46.9819 1243.49 -2.7696 1323.49 20.0161C1403.48 42.8018 1453.23 114.028 1430.45 193.942Z" stroke="#979797" stroke-opacity="0.5" stroke-width="0.2" stroke-miterlimit="10"/>
<path d="M1435.53 195.088C1412.58 275.576 1339.55 325.327 1259.06 302.377C1178.58 279.428 1128.82 206.399 1151.77 125.911C1174.72 45.4235 1247.75 -4.32807 1328.24 18.6216C1408.73 41.5712 1458.48 114.6 1435.53 195.088Z" stroke="#979797" stroke-opacity="0.5" stroke-width="0.2" stroke-miterlimit="10"/>
<path d="M1440.53 196.235C1417.42 277.215 1342.5 326.884 1261.44 303.853C1180.38 280.821 1130.79 205.825 1153.82 124.764C1176.94 43.7841 1251.85 -5.8855 1332.91 17.1461C1413.97 40.1777 1463.64 115.174 1440.53 196.235Z" stroke="#979797" stroke-opacity="0.5" stroke-width="0.2" stroke-miterlimit="10"/>
<path d="M1445.61 197.383C1422.33 278.936 1345.53 328.524 1263.98 305.247C1182.43 281.969 1132.84 205.17 1156.12 123.617C1179.4 42.0634 1256.19 -7.52424 1337.75 15.7533C1419.3 39.0307 1468.81 115.83 1445.61 197.383Z" stroke="#979797" stroke-opacity="0.5" stroke-width="0.2" stroke-miterlimit="10"/>
<path d="M1450.61 198.531C1427.25 280.576 1348.48 330.082 1266.44 306.722C1184.39 283.363 1134.89 204.596 1158.25 122.551C1181.61 40.5064 1260.37 -8.99928 1342.42 14.3602C1424.55 37.7196 1474.05 116.404 1450.61 198.531Z" stroke="#979797" stroke-opacity="0.5" stroke-width="0.2" stroke-miterlimit="10"/>
<path d="M1455.69 199.679C1432.17 282.297 1351.52 331.721 1268.9 308.116C1186.28 284.592 1136.86 203.941 1160.46 121.322C1183.98 38.7032 1264.64 -10.6385 1347.25 12.8849C1429.79 36.4083 1479.22 117.06 1455.69 199.679Z" stroke="#979797" stroke-opacity="0.5" stroke-width="0.2" stroke-miterlimit="10"/>
<path d="M1460.77 200.744C1437.09 283.855 1354.55 333.196 1271.44 309.509C1188.33 285.822 1138.99 203.285 1162.67 120.174C1186.36 37.064 1268.9 -12.2777 1352.01 11.4096C1435.12 35.0969 1484.46 117.634 1460.77 200.744Z" stroke="#979797" stroke-opacity="0.5" stroke-width="0.2" stroke-miterlimit="10"/>
<path d="M1465.77 201.891C1441.92 285.576 1357.5 334.753 1273.82 310.984C1190.13 287.133 1140.96 202.711 1164.72 119.027C1188.66 35.4246 1273.08 -13.8352 1356.68 10.016C1440.28 33.8673 1489.63 118.289 1465.77 201.891Z" stroke="#979797" stroke-opacity="0.5" stroke-width="0.2" stroke-miterlimit="10"/>
<path d="M1470.86 203.039C1446.84 287.215 1360.53 336.393 1276.36 312.378C1192.18 288.362 1143 202.055 1167.02 117.879C1191.03 33.7033 1277.26 -15.3925 1361.44 8.5407C1445.61 32.4739 1494.79 118.863 1470.86 203.039Z" stroke="#979797" stroke-opacity="0.5" stroke-width="0.2" stroke-miterlimit="10"/>
<path d="M1322.5 320C1410.59 320 1482 248.589 1482 160.5C1482 72.4106 1410.59 1 1322.5 1C1234.41 1 1163 72.4106 1163 160.5C1163 248.589 1234.41 320 1322.5 320Z" stroke="#979797" stroke-opacity="0.5" stroke-width="0.2" stroke-miterlimit="10"/>
</svg>
