<svg width="360" height="347" viewBox="0 0 360 347" fill="none" xmlns="http://www.w3.org/2000/svg">
<path d="M116.65 127.849C81.2759 71.866 50.1467 11.207 43.0719 -54.6196C41.8415 -65.9393 41.4108 -77.6282 45.2251 -88.3327C69.0334 -155.082 163.528 -56.9574 184.261 -32.5338C215.821 4.68589 245.043 44.7971 268.297 87.6767C291.552 130.556 308.962 176.204 316.837 224.375C318.498 234.71 319.79 245.291 317.883 255.627C316.037 265.901 310.623 275.99 301.58 281.342C285.769 290.755 265.467 282.819 249.718 273.222C194.227 239.263 153.501 185.863 118.557 130.925C117.942 129.941 117.265 128.895 116.65 127.849Z" stroke="#979797" stroke-width="0.189855" stroke-miterlimit="10"/>
<path d="M184.199 -34.7472C200.81 -16.3526 216.928 3.02624 231.57 23.5125C246.212 43.9987 259.5 65.5923 271.066 87.7396C293.644 130.927 310.808 176.39 318.191 224.376C319.79 234.65 320.897 245.231 318.929 255.505C316.96 265.779 311.546 275.807 302.564 281.159C286.446 290.879 265.898 283.497 249.719 274.269C241.044 269.286 232.677 263.81 224.618 257.905C179.709 225.053 144.642 178.482 115.42 130.435C114.743 129.327 114.128 128.281 113.451 127.174C78.9999 70.76 48.4859 10.2856 42.2723 -55.1719C41.2265 -66.4301 40.9189 -78.0574 44.7947 -88.7004C68.9106 -154.958 162.667 -58.617 184.199 -34.7472Z" stroke="#979797" stroke-width="0.189855" stroke-miterlimit="10"/>
<path d="M184.137 -37.0235C201.548 -18.8135 218.527 0.626922 233.784 21.5438C249.041 42.4607 262.329 64.7925 273.895 87.7396C295.796 131.173 312.776 176.513 319.605 224.376C321.081 234.65 322.066 245.17 320.035 255.382C318.005 265.595 312.53 275.561 303.61 281.036C287.245 291.064 266.39 284.235 249.779 275.376C240.859 270.578 232.308 265.287 223.941 259.442C177.37 227.083 141.012 179.466 112.159 129.881C111.482 128.774 110.867 127.666 110.19 126.559C76.6615 69.7756 46.8242 9.36279 41.4104 -55.7256C40.4876 -66.9223 40.303 -78.4881 44.3018 -89.0696C68.7869 -154.835 161.805 -60.3396 184.137 -37.0235Z" stroke="#979797" stroke-width="0.189987" stroke-miterlimit="10"/>
<path d="M184.075 -39.3001C202.285 -21.3362 220.188 -1.83426 235.998 19.5748C251.748 40.9223 265.159 64.0539 276.725 87.7392C298.011 131.357 314.683 176.636 321.019 224.314C322.373 234.588 323.234 245.046 321.142 255.259C319.051 265.471 313.514 275.314 304.655 280.851C287.983 291.187 266.882 284.912 249.841 276.422C240.736 271.808 231.877 266.64 223.264 260.919C175.093 229.051 137.382 180.389 108.959 129.327C108.344 128.158 107.729 127.051 107.052 125.882C74.3233 68.7294 45.1628 8.50115 40.6103 -56.3412C39.8105 -67.4763 39.872 -78.9806 43.8708 -89.5006C68.848 -154.65 160.944 -62.1241 184.075 -39.3001Z" stroke="#979797" stroke-width="0.189987" stroke-miterlimit="10"/>
<path d="M184.014 -41.5156C203.086 -23.7363 221.849 -4.17286 238.152 17.6053C254.455 39.3835 267.989 63.3148 279.494 87.7384C300.165 131.602 316.59 176.697 322.373 224.252C323.604 234.464 324.404 244.923 322.189 255.073C320.036 265.224 314.437 275.067 305.64 280.604C288.722 291.247 267.313 285.587 249.841 277.344C240.49 272.976 231.385 267.87 222.526 262.271C172.818 231.019 133.814 181.249 105.761 128.649C105.145 127.48 104.53 126.312 103.854 125.143C71.9861 67.6212 43.5022 7.51598 39.7495 -57.0187C39.1343 -68.0924 39.2573 -79.5351 43.3791 -89.9936C68.7255 -154.528 160.145 -63.8475 184.014 -41.5156Z" stroke="#979797" stroke-width="0.190118" stroke-miterlimit="10"/>
<path d="M183.953 -43.7927C203.824 -26.1979 223.51 -6.57292 240.367 15.6359C257.223 37.8447 270.819 62.5758 282.323 87.7376C302.379 131.786 318.497 176.819 323.788 224.251C324.895 234.463 325.572 244.86 323.357 254.95C321.143 265.039 315.544 274.821 306.747 280.419C289.521 291.37 267.866 286.263 249.902 278.389C240.305 274.205 230.954 269.284 221.849 263.747C170.418 233.11 130.122 182.294 102.5 128.218C101.885 126.987 101.269 125.757 100.654 124.588C69.648 66.7592 41.8409 6.71545 38.9494 -57.4501C38.4573 -68.4623 38.7649 -79.8435 42.9482 -90.2404C68.6637 -154.406 159.283 -65.5708 183.953 -43.7927Z" stroke="#979797" stroke-width="0.190118" stroke-miterlimit="10"/>
<path d="M183.891 -46.0674C204.623 -28.6572 225.171 -9.03225 242.52 13.6687C259.869 36.3697 273.649 61.7775 285.03 87.7391C304.471 131.972 320.281 176.943 325.08 224.191C326.064 234.342 326.618 244.739 324.342 254.828C322.004 264.917 316.406 274.637 307.67 280.236C290.198 291.494 268.235 286.942 249.841 279.436C239.998 275.437 230.4 270.639 220.988 265.225C168.08 235.08 126.616 183.095 99.3008 127.543C98.6856 126.312 98.1319 125.02 97.4552 123.79C67.2487 65.5918 40.1798 5.67109 38.0882 -58.1869C37.7806 -69.199 38.2112 -80.4572 42.4561 -90.8541C68.6022 -154.343 158.483 -67.3534 183.891 -46.0674Z" stroke="#979797" stroke-width="0.19025" stroke-miterlimit="10"/>
<path d="M183.83 -48.3458C205.424 -31.1817 226.833 -11.4337 244.735 11.6364C262.638 34.768 276.48 60.9756 287.861 87.6754C306.748 132.093 322.251 177.003 326.434 224.127C327.296 234.278 327.726 244.613 325.388 254.641C322.989 264.669 317.329 274.328 308.655 280.049C290.937 291.615 268.667 287.616 249.842 280.48C239.814 276.666 229.971 272.051 220.25 266.699C165.805 237.108 122.987 184.016 96.1026 126.987C95.4874 125.695 94.9337 124.403 94.3185 123.173C64.9118 64.7283 38.5196 4.80765 37.3508 -58.7427C37.1662 -69.6933 37.7814 -80.89 42.0878 -91.2254C68.5415 -154.222 157.684 -69.0782 183.83 -48.3458Z" stroke="#979797" stroke-width="0.19025" stroke-miterlimit="10"/>
<path d="M183.768 -50.5593C206.223 -33.5797 228.493 -13.8318 246.949 9.73049C265.405 33.2927 279.37 60.2386 290.69 87.7996C309.023 132.402 324.157 177.25 327.848 224.19C328.648 234.279 328.956 244.615 326.495 254.581C324.034 264.547 318.374 274.206 309.7 279.927C291.674 291.801 269.158 288.356 249.902 281.527C239.628 277.897 229.539 273.406 219.573 268.177C163.589 238.955 119.418 185.002 92.9026 126.434C92.2874 125.142 91.7952 123.789 91.1185 122.497C62.5116 63.7452 36.8577 3.88608 36.4885 -59.3567C36.427 -70.2458 37.2268 -81.3809 41.5947 -91.6548C68.479 -154.098 156.884 -70.861 183.768 -50.5593Z" stroke="#979797" stroke-width="0.190382" stroke-miterlimit="10"/>
<path d="M183.645 -52.8336C207.023 -36.1001 230.093 -16.229 249.041 7.76385C267.989 31.7567 282.139 59.4408 293.397 87.8016C311.176 132.527 326.003 177.375 329.14 224.192C329.817 234.281 330.002 244.555 327.479 254.521C324.957 264.488 319.236 274.023 310.623 279.806C292.351 292.049 269.527 289.096 249.841 282.636C239.321 279.191 228.985 274.823 218.773 269.717C161.252 241.049 115.788 185.988 89.6421 125.944C89.0884 124.591 88.5347 123.237 87.9195 121.945C60.1123 62.8859 35.1966 3.08829 35.6888 -59.7854C35.8119 -70.6129 36.6731 -81.6866 41.1641 -91.8989C68.3561 -153.973 156.145 -72.5816 183.645 -52.8336Z" stroke="#979797" stroke-width="0.190382" stroke-miterlimit="10"/>
<path d="M183.583 -55.1103C207.822 -38.5614 231.753 -18.6288 251.255 5.79468C270.757 30.2182 285.03 58.7021 296.165 87.8011C313.452 132.649 327.848 177.498 330.493 224.13C331.047 234.219 331.108 244.432 328.525 254.336C325.941 264.241 320.158 273.777 311.606 279.56C293.089 292.11 270.019 289.71 249.779 283.62C239.074 280.359 228.493 276.176 217.973 271.131C158.852 243.017 112.096 186.91 86.3809 125.328C85.8272 123.975 85.2736 122.56 84.6584 121.207C57.5895 61.9011 33.4735 2.10347 34.7655 -60.4626C35.0115 -71.2286 36.0574 -82.2408 40.6099 -92.3916C68.294 -153.85 155.345 -74.3662 183.583 -55.1103Z" stroke="#979797" stroke-width="0.190514" stroke-miterlimit="10"/>
<path d="M183.522 -57.3877C208.622 -41.0849 233.415 -21.0908 253.471 3.7634C273.526 28.6176 287.86 57.8397 298.996 87.7385C315.729 132.771 329.817 177.497 331.909 224.067C332.339 234.095 332.278 244.307 329.633 254.151C326.987 264.055 321.204 273.468 312.653 279.374C293.828 292.232 270.512 290.386 249.841 284.665C238.89 281.589 228.063 277.528 217.297 272.607C156.576 245.046 108.529 187.832 83.1826 124.774C82.6289 123.359 82.1367 121.944 81.5215 120.59C55.1909 61.0387 31.8747 1.24105 34.0279 -61.0174C34.397 -71.7219 35.6274 -82.6725 40.2415 -92.7618C68.2332 -153.728 154.608 -76.1514 183.522 -57.3877Z" stroke="#979797" stroke-width="0.190514" stroke-miterlimit="10"/>
<path d="M183.46 -59.6018C209.483 -43.4835 235.076 -23.4279 255.623 1.85694C276.171 27.1417 290.69 57.1021 301.764 87.8007C318.005 132.957 331.662 177.682 333.262 224.068C333.57 234.096 333.447 244.247 330.678 254.09C327.91 263.933 322.127 273.346 313.575 279.252C294.504 292.417 270.88 291.125 249.779 285.711C238.582 282.82 227.509 278.883 216.497 274.145C154.238 247.077 104.837 188.878 79.9217 124.282C79.368 122.867 78.8758 121.391 78.2606 119.976C52.7297 60.1781 30.2133 0.380446 33.2278 -61.5704C33.7815 -72.2134 35.135 -83.1025 39.8105 -93.1303C68.1098 -153.605 153.869 -77.9348 183.46 -59.6018Z" stroke="#979797" stroke-width="0.190646" stroke-miterlimit="10"/>
<path d="M183.399 -61.8786C210.345 -46.0064 236.737 -25.8893 257.839 -0.11228C278.94 25.6647 293.582 56.3018 304.594 87.8001C320.343 133.017 333.631 177.804 334.677 224.067C334.862 234.034 334.616 244.185 331.786 253.966C328.956 263.748 323.111 273.161 314.622 279.066C295.243 292.601 271.373 291.863 249.841 286.757C238.46 284.05 227.078 280.297 215.759 275.621C151.901 249.106 101.27 189.801 76.723 123.728C76.1693 122.251 75.7387 120.775 75.1234 119.36C50.2693 59.3163 28.5526 -0.481391 32.3669 -62.1246C33.0436 -72.7676 34.5816 -83.5337 39.3187 -93.5C68.0486 -153.482 153.131 -79.7194 183.399 -61.8786Z" stroke="#979797" stroke-width="0.190646" stroke-miterlimit="10"/>
<path d="M183.338 -64.1575C211.145 -48.5313 238.398 -28.2912 259.992 -2.14507C281.585 24.001 296.473 55.4379 307.362 87.736C322.681 133.076 335.6 177.863 336.031 223.942C336.154 233.908 335.723 243.997 332.832 253.779C329.94 263.561 324.096 272.85 315.606 278.818C295.981 292.66 271.804 292.475 249.841 287.738C238.214 285.216 226.586 281.586 215.021 277.034C149.563 251.072 97.64 190.721 73.4625 123.11C72.9089 121.634 72.4782 120.096 71.863 118.619C47.6856 58.3293 26.8302 -1.46835 31.4442 -62.7425C32.3055 -73.324 33.905 -84.0285 38.7651 -93.9332C67.9872 -153.362 152.393 -81.5677 183.338 -64.1575Z" stroke="#979797" stroke-width="0.190778" stroke-miterlimit="10"/>
<path d="M183.276 -66.4305C212.006 -51.0505 240.059 -30.6873 262.207 -4.11054C284.354 22.4662 299.365 54.6413 310.131 87.7392C324.957 133.203 337.446 177.989 337.384 223.945C337.384 233.85 336.831 243.939 333.878 253.659C330.925 263.379 325.019 272.669 316.591 278.636C296.72 292.848 272.235 293.155 249.78 288.787C237.906 286.511 226.094 283.004 214.221 278.513C147.225 253.106 93.9489 191.647 70.2021 122.56C69.6484 121.022 69.2178 119.484 68.6641 118.007C45.1634 57.5327 25.1693 -2.32645 30.6446 -63.293C31.6289 -73.813 33.413 -84.4559 38.3346 -94.2992C67.8643 -153.236 151.655 -83.3486 183.276 -66.4305Z" stroke="#979797" stroke-width="0.190778" stroke-miterlimit="10"/>
<path d="M183.214 -68.6479C212.867 -53.514 241.72 -33.0893 264.421 -6.02036C287.122 21.0485 302.256 53.9003 312.961 87.798C327.356 133.384 339.414 178.171 338.799 223.942C338.676 233.847 338.061 243.875 334.985 253.533C331.97 263.254 326.003 272.482 317.636 278.511C297.519 293.029 272.726 293.891 249.841 289.83C237.783 287.739 225.663 284.355 213.544 279.987C144.949 255.133 90.3804 192.628 67.0643 122.003C66.5721 120.465 66.1415 118.866 65.5263 117.328C42.7023 56.6072 23.5695 -3.25194 29.8445 -63.9109C30.9519 -74.3693 32.9206 -84.9508 37.9037 -94.794C67.8025 -153.115 150.916 -85.1353 183.214 -68.6479Z" stroke="#979797" stroke-width="0.190909" stroke-miterlimit="10"/>
<path d="M183.153 -70.9226C213.728 -56.0347 243.381 -35.1179 266.574 -8.04899C289.767 19.389 305.147 52.9791 315.729 87.738C329.694 133.386 341.26 178.234 340.152 223.882C339.906 233.787 339.168 243.753 336.031 253.412C332.893 263.071 326.987 272.237 318.62 278.328C298.196 293.154 273.218 294.569 249.841 290.878C237.537 288.971 225.171 285.71 212.806 281.465C142.673 257.103 86.8121 193.553 63.8651 121.451C63.3729 119.852 62.9423 118.252 62.3886 116.653C40.2413 55.7475 21.8468 -4.17321 29.1062 -64.5245C30.3366 -74.9215 32.4898 -85.4414 37.5344 -95.2231C67.6794 -152.991 150.24 -86.9794 183.153 -70.9226Z" stroke="#979797" stroke-width="0.190909" stroke-miterlimit="10"/>
<path d="M183.09 -73.1978C214.589 -58.556 245.041 -37.9467 268.788 -10.0165C292.535 17.9136 308.038 52.1804 318.558 87.7391C332.092 133.51 343.228 178.358 341.566 223.822C341.197 233.665 340.336 243.631 337.137 253.229C333.938 262.826 327.971 271.992 319.665 278.083C298.995 293.278 273.71 295.185 249.901 291.863C237.351 290.141 224.74 287.065 212.128 282.881C140.334 259.134 83.1816 194.477 60.6652 120.899C60.173 119.299 59.7424 117.638 59.1887 116.038C37.7181 54.8873 20.1233 -5.03339 28.3055 -65.0156C29.7205 -75.351 31.9352 -85.8094 37.1029 -95.5296C67.6169 -152.866 149.5 -88.8239 183.09 -73.1978Z" stroke="#979797" stroke-width="0.191041" stroke-miterlimit="10"/>
<path d="M183.03 -75.4751C215.451 -61.0794 246.704 -40.347 271.004 -11.9862C295.305 16.3746 310.992 51.3796 321.389 87.7381C334.493 133.571 345.198 178.419 342.983 223.821C342.491 233.664 341.506 243.569 338.246 253.104C334.985 262.702 329.018 271.807 320.713 277.897C299.796 293.4 274.203 295.861 249.964 292.908C237.23 291.37 224.372 288.417 211.391 284.357C138.059 261.102 79.6148 195.398 57.4676 120.344C56.9754 118.683 56.6063 117.022 56.0526 115.361C35.1972 54.025 18.5253 -5.95726 27.5072 -65.6319C29.0452 -75.9673 31.4445 -86.3027 36.6737 -95.9613C67.4954 -152.744 148.764 -90.6091 183.03 -75.4751Z" stroke="#979797" stroke-width="0.191041" stroke-miterlimit="10"/>
<path d="M182.968 -77.6898C216.312 -63.6017 248.364 -42.7463 273.157 -13.8933C298.011 14.8981 313.822 50.6414 324.096 87.7996C336.769 133.755 346.981 178.603 344.274 223.821C343.659 233.603 342.613 243.507 339.23 253.043C335.908 262.579 329.879 271.622 321.635 277.836C300.472 293.708 274.572 296.661 249.841 294.015C236.86 292.662 223.756 289.894 210.529 285.895C135.721 263.132 75.9232 196.383 54.2065 119.79C53.7144 118.129 53.3452 116.407 52.7916 114.745C32.6129 53.2252 16.8022 -6.81849 26.6455 -66.1855C28.368 -76.4594 30.8904 -86.7333 36.1811 -96.3304C67.3719 -152.621 148.086 -92.4546 182.968 -77.6898Z" stroke="#979797" stroke-width="0.191173" stroke-miterlimit="10"/>
<path d="M182.846 -79.9662C217.112 -66.1242 249.903 -45.1458 275.31 -15.9237C300.718 13.2984 316.714 49.7184 326.864 87.7379C339.168 133.755 348.889 178.665 345.628 223.759C344.951 233.541 343.721 243.384 340.337 252.858C336.954 262.394 330.863 271.376 322.681 277.589C301.21 293.769 275.064 297.276 249.903 294.999C236.676 293.831 223.326 291.185 209.853 287.309C133.383 265.162 72.2937 197.305 50.9462 119.236C50.454 117.514 50.1464 115.791 49.5928 114.069C30.0293 52.3637 15.1414 -7.74151 25.7844 -66.8009C27.63 -77.0133 30.3369 -87.2256 35.6892 -96.7613C67.3106 -152.499 147.348 -94.3005 182.846 -79.9662Z" stroke="#979797" stroke-width="0.191305" stroke-miterlimit="10"/>
<path d="M182.783 -82.2415C217.973 -68.7071 251.563 -47.5441 277.524 -17.8914C303.424 11.7614 319.666 48.9196 329.694 87.7389C341.567 133.879 350.795 178.789 347.042 223.699C346.243 233.419 344.889 243.262 341.444 252.675C337.999 262.149 331.908 271.131 323.726 277.344C302.009 293.893 275.556 297.892 249.963 295.985C236.552 295 222.894 292.54 209.175 288.725C131.106 267.132 68.7248 198.229 47.8079 118.622C47.3773 116.899 47.0082 115.115 46.4545 113.393C27.5063 51.5034 13.5412 -8.66335 25.0455 -67.3536C27.0141 -77.5045 29.844 -87.6553 35.3193 -97.1294C67.1868 -152.436 146.671 -96.1451 182.783 -82.2415Z" stroke="#979797" stroke-width="0.191305" stroke-miterlimit="10"/>
<path d="M182.722 -84.5179C218.834 -71.2295 253.224 -50.005 279.678 -19.8601C306.132 10.2233 322.557 48.0582 332.462 87.7388C343.967 133.94 352.702 178.912 348.396 223.698C347.473 233.419 345.997 243.139 342.49 252.613C338.922 262.026 332.831 270.946 324.711 277.221C302.748 294.078 275.987 298.63 249.964 297.092C236.306 296.292 222.403 293.955 208.437 290.263C128.83 269.223 65.0954 199.213 44.6091 118.13C44.1785 116.346 43.8094 114.562 43.3172 112.777C24.9227 50.7036 11.9419 -9.52471 24.2459 -67.9074C26.3992 -77.9967 29.3521 -88.086 34.8889 -97.4986C67.064 -152.313 145.933 -97.9908 182.722 -84.5179Z" stroke="#979797" stroke-width="0.191437" stroke-miterlimit="10"/>
<path d="M182.661 -86.7324C219.758 -73.7517 254.886 -52.3426 281.893 -21.8286C308.839 8.74697 325.511 47.2586 335.231 87.8004C346.366 134.064 354.549 179.096 349.75 223.699C348.704 233.419 347.105 243.077 343.536 252.49C339.907 261.903 333.816 270.762 325.696 277.037C303.487 294.262 276.479 299.245 249.964 298.077C236.061 297.461 221.972 295.247 207.7 291.678C126.493 271.192 61.4662 200.136 41.3491 117.515C40.9184 115.731 40.6108 113.885 40.0572 112.101C22.2778 49.8425 10.2199 -10.4473 23.3852 -68.5224C25.6614 -78.5502 28.799 -88.578 34.3973 -97.9291C67.003 -152.19 145.257 -99.8977 182.661 -86.7324Z" stroke="#979797" stroke-width="0.191437" stroke-miterlimit="10"/>
<path d="M182.6 -89.0082C220.619 -76.335 256.547 -54.8029 284.046 -23.7967C311.546 7.20947 328.403 46.4594 338 87.801C348.766 134.126 356.456 179.22 351.104 223.699C349.935 233.358 348.274 243.017 344.582 252.368C340.891 261.719 334.739 270.578 326.68 276.914C304.225 294.509 276.91 299.984 249.903 299.184C235.815 298.754 221.419 296.724 206.839 293.217C124.094 273.223 57.7751 201.121 38.0887 116.962C37.658 115.116 37.3504 113.27 36.8582 111.425C19.6326 48.9817 8.55894 -11.3696 22.524 -69.1371C24.9233 -79.1649 28.2454 -89.0697 33.9053 -98.3592C66.8801 -152.066 144.519 -101.743 182.6 -89.0082Z" stroke="#979797" stroke-width="0.191569" stroke-miterlimit="10"/>
<path d="M182.537 -91.2836C221.479 -78.918 258.207 -57.2014 286.26 -25.7645C314.313 5.67231 331.416 45.5989 340.829 87.8018C351.226 134.25 358.362 179.344 352.518 223.638C351.226 233.297 349.442 242.894 345.689 252.245C341.936 261.535 335.784 270.394 327.725 276.73C305.024 294.633 277.401 300.662 249.963 300.231C235.629 299.985 220.987 298.078 206.161 294.694C121.817 275.315 54.1445 202.106 34.8886 116.47C34.458 114.625 34.1504 112.717 33.6582 110.872C17.0478 48.3058 6.8354 -12.1686 21.7233 -69.5669C24.3071 -79.5332 27.6908 -89.438 33.4737 -98.666C66.7561 -151.943 143.841 -103.588 182.537 -91.2836Z" stroke="#979797" stroke-width="0.191569" stroke-miterlimit="10"/>
<path d="M182.476 -93.5599C222.342 -81.5019 259.869 -59.6007 288.476 -27.7948C317.083 4.01119 334.37 44.7376 343.659 87.7402C353.687 134.249 360.331 179.405 353.933 223.577C352.518 233.174 350.611 242.771 346.797 252.061C342.983 261.35 336.769 270.086 328.772 276.484C305.763 294.756 277.894 301.277 250.026 301.215C235.445 301.154 220.558 299.431 205.485 296.109C119.541 277.222 50.5771 203.029 31.6904 115.855C31.2598 113.948 31.0137 112.041 30.5215 110.134C14.4647 47.3829 5.23671 -13.153 20.9244 -70.2437C23.6313 -80.1485 27.1994 -89.9917 33.0439 -99.1582C66.6339 -151.82 143.104 -105.495 182.476 -93.5599Z" stroke="#979797" stroke-width="0.191701" stroke-miterlimit="10"/>
<path d="M182.415 -95.7753C223.203 -84.025 261.53 -62.0007 290.629 -29.7026C319.728 2.59552 337.323 43.9371 346.428 87.801C356.087 134.372 362.177 179.528 355.287 223.576C353.81 233.173 351.719 242.709 347.843 251.937C343.906 261.165 337.754 269.901 329.756 276.299C306.501 294.94 278.325 301.953 250.026 302.199C235.261 302.322 220.127 300.723 204.747 297.523C117.142 279.252 46.886 203.951 28.43 115.301C27.9993 113.393 27.7532 111.425 27.2611 109.456C11.758 46.521 3.51426 -14.0765 20.0632 -70.8596C22.9547 -80.7029 26.6459 -90.4846 32.5518 -99.5896C66.5725 -151.697 142.427 -107.341 182.415 -95.7753Z" stroke="#979797" stroke-width="0.191701" stroke-miterlimit="10"/>
<path d="M182.354 -98.0529C224.126 -86.6101 263.191 -64.4013 292.844 -31.6725C322.497 1.05622 340.276 43.136 349.196 87.7997C358.486 134.432 364.084 179.649 356.64 223.575C355.041 233.111 352.888 242.646 348.889 251.874C344.89 261.102 338.677 269.777 330.679 276.236C307.055 295.246 278.694 302.751 249.964 303.367C234.953 303.674 219.573 302.259 203.947 299.122C114.804 281.342 43.2564 204.996 25.231 114.807C24.8619 112.838 24.5543 110.87 24.1236 108.901C9.17421 45.7814 1.91482 -14.8775 19.2635 -71.3531C22.278 -81.1348 26.0923 -90.855 32.1212 -99.8985C66.4495 -151.637 141.689 -109.25 182.354 -98.0529Z" stroke="#979797" stroke-width="0.191832" stroke-miterlimit="10"/>
<path d="M182.292 -100.329C224.987 -89.1936 264.852 -66.8617 295.059 -33.6408C325.265 -0.481404 343.291 42.2751 352.027 87.8001C361.009 134.494 365.992 179.773 358.056 223.514C356.333 233.049 354.057 242.524 349.996 251.69C345.936 260.857 339.723 269.531 331.725 275.991C307.978 295.308 279.248 303.367 249.965 304.351C234.708 304.844 219.081 303.552 203.209 300.537C112.528 283.311 39.6269 205.857 22.0321 114.192C21.663 112.224 21.4169 110.193 20.9247 108.163C6.529 44.9205 0.253936 -15.8615 18.4639 -72.0294C21.6015 -81.7496 25.6003 -91.4083 31.6908 -100.39C66.3267 -151.514 141.012 -111.095 182.292 -100.329Z" stroke="#979797" stroke-width="0.191832" stroke-miterlimit="10"/>
<path d="M182.23 -102.606C225.848 -91.778 266.513 -69.2616 297.211 -35.6716C327.91 -2.08152 346.243 41.4133 354.794 87.738C363.407 134.555 367.898 179.834 359.408 223.452C357.562 232.987 355.163 242.4 351.041 251.566C346.919 260.671 340.644 269.284 332.708 275.805C308.592 295.553 279.678 304.043 249.964 305.397C234.522 306.073 218.588 304.904 202.408 302.013C110.128 285.341 35.9347 206.841 18.7091 113.638C18.3399 111.608 18.0939 109.578 17.6632 107.547C3.82118 44.1202 -1.46957 -16.7233 17.5402 -72.5222C20.8623 -82.2424 24.9841 -91.778 31.1362 -100.698C66.2027 -151.391 140.273 -113.002 182.23 -102.606Z" stroke="#979797" stroke-width="0.191964" stroke-miterlimit="10"/>
<path d="M182.169 -104.821C226.709 -94.3009 268.174 -71.5999 299.426 -37.5793C330.678 -3.55858 349.257 40.6129 357.624 87.7989C365.929 134.677 369.805 180.018 360.823 223.451C358.855 232.925 356.332 242.338 352.149 251.443C347.966 260.548 341.629 269.099 333.754 275.62C309.515 295.614 280.17 304.719 250.025 306.38C234.338 307.242 218.158 306.257 201.732 303.427C107.852 287.309 32.3668 207.702 15.5718 113.022C15.2026 110.992 14.9566 108.9 14.5259 106.809C1.17603 43.1968 -3.06886 -17.7082 16.8022 -73.1995C20.2473 -82.8581 24.4922 -92.3323 30.7673 -101.191C66.0799 -151.269 139.597 -114.91 182.169 -104.821Z" stroke="#979797" stroke-width="0.191964" stroke-miterlimit="10"/>
<path d="M182.045 -107.094C227.509 -96.9434 269.773 -74.0579 301.518 -39.545C333.324 -5.0322 352.149 39.7545 360.27 87.8018C368.267 134.742 371.589 180.144 362.054 223.454C359.962 232.928 357.378 242.279 353.072 251.323C348.827 260.366 342.49 268.917 334.616 275.438C310.131 295.802 280.478 305.399 249.902 307.429C233.969 308.475 217.604 307.614 200.871 304.907C105.453 289.342 28.6141 208.689 12.2497 112.471C11.8806 110.38 11.696 108.288 11.2654 106.196C-1.53085 42.4614 -4.79142 -18.5667 15.8794 -73.7503C19.4475 -83.3474 23.877 -92.76 30.2136 -101.557C65.9568 -151.204 138.858 -116.753 182.045 -107.094Z" stroke="#979797" stroke-width="0.192096" stroke-miterlimit="10"/>
<path d="M181.984 -109.375C228.432 -99.5319 271.434 -76.4618 303.732 -41.5799C336.03 -6.6364 355.163 38.8886 363.099 87.7356C370.728 134.737 373.496 180.2 363.468 223.326C361.254 232.739 358.547 242.09 354.179 251.133C349.811 260.177 343.474 268.667 335.661 275.249C310.93 295.982 280.97 306.071 249.964 308.47C233.845 309.701 217.173 309.024 200.194 306.378C103.176 291.552 25.1072 209.669 9.11198 111.913C8.74286 109.821 8.5583 107.668 8.12766 105.515C-4.17638 41.5954 -6.39111 -19.4941 15.141 -74.3702C18.8937 -83.9058 23.4462 -93.2569 29.8443 -101.993C65.8336 -151.086 138.12 -118.665 181.984 -109.375Z" stroke="#979797" stroke-width="0.192096" stroke-miterlimit="10"/>
<path d="M181.922 -111.648C229.293 -102.112 273.095 -78.9194 305.947 -43.5452C338.799 -8.17111 358.177 38.0306 365.929 87.7389C373.25 134.802 375.403 180.327 364.883 223.329C362.545 232.742 359.715 242.032 355.286 251.014C350.857 259.996 344.52 268.485 336.707 275.068C311.73 296.169 281.462 306.751 250.025 309.519C233.661 310.934 216.742 310.442 199.517 307.858C100.9 293.586 21.4773 210.595 5.91265 111.363C5.60505 109.209 5.35897 107.056 4.98985 104.903C-6.82203 40.799 -7.99092 -20.3521 14.3409 -74.859C18.2167 -84.3331 22.9538 -93.6227 29.4134 -102.359C65.7103 -150.96 137.443 -120.569 181.922 -111.648Z" stroke="#979797" stroke-width="0.192228" stroke-miterlimit="10"/>
<path d="M181.861 -113.864C230.155 -104.697 274.757 -81.258 308.101 -45.4532C341.445 -9.64845 361.193 37.2915 368.698 87.7996C375.712 134.986 377.311 180.511 366.237 223.329C363.838 232.68 360.824 241.969 356.394 250.89C351.903 259.81 345.505 268.3 337.754 274.883C312.53 296.353 281.955 307.427 250.026 310.564C233.415 312.164 216.251 311.795 198.779 309.334C98.563 295.615 17.8485 211.578 2.71448 110.808C2.40688 108.593 2.1608 106.44 1.79168 104.225C-9.46652 39.9368 -9.65109 -21.2758 13.542 -75.4751C17.6024 -84.8877 22.4009 -94.1157 28.9836 -102.79C65.5881 -150.899 136.706 -122.477 181.861 -113.864Z" stroke="#979797" stroke-width="0.192228" stroke-miterlimit="10"/>
<path d="M181.8 -116.141C231.016 -107.344 276.418 -83.6585 310.315 -47.4231C344.213 -11.1876 364.207 36.429 371.528 87.7984C378.234 135.046 379.218 180.571 367.652 223.327C365.13 232.678 362.054 241.907 357.501 250.827C352.949 259.747 346.551 268.114 338.799 274.758C313.33 296.598 282.447 308.164 250.087 311.609C233.292 313.393 215.82 313.208 198.102 310.809C96.3479 297.644 14.28 212.5 -0.484881 110.253C-0.792482 108.039 -0.977044 105.824 -1.34617 103.609C-12.1122 39.1974 -11.2509 -22.1382 12.742 -76.03C16.9253 -85.4425 21.9085 -94.5475 28.5527 -103.16C65.4648 -150.777 136.028 -124.385 181.8 -116.141Z" stroke="#979797" stroke-width="0.19236" stroke-miterlimit="10"/>
<path d="M181.738 -118.415C231.877 -109.925 278.079 -86.1168 312.53 -49.4508C346.981 -12.7847 367.283 35.5702 374.296 87.7393C380.694 135.048 381.125 180.635 369.006 223.207C366.36 232.558 363.161 241.724 358.547 250.583C353.933 259.442 347.473 267.809 339.783 274.515C314.068 296.662 282.939 308.782 250.087 312.596C233.046 314.564 215.39 314.503 197.303 312.227C93.8871 299.615 10.5272 213.425 -3.80703 109.641C-4.11463 107.364 -4.29919 105.15 -4.66831 102.873C-14.9422 38.2771 -13.0351 -23.1201 11.8191 -76.7042C16.1255 -86.0553 21.2317 -95.0988 27.9989 -103.65C65.3417 -150.652 135.29 -126.29 181.738 -118.415Z" stroke="#979797" stroke-width="0.19236" stroke-miterlimit="10"/>
<path d="M181.676 -120.692C232.738 -112.571 279.739 -88.5165 314.683 -51.4198C349.688 -14.3231 370.297 34.7085 377.064 87.8005C383.155 135.171 382.97 180.819 370.359 223.207C367.59 232.496 364.268 241.663 359.593 250.46C354.856 259.257 348.458 267.624 340.768 274.33C314.868 296.846 283.369 309.458 250.087 313.641C232.8 315.794 214.897 315.856 196.564 313.703C91.6722 301.645 6.77426 214.409 -6.94475 109.086C-7.25235 106.81 -7.4369 104.534 -7.74451 102.258C-17.5877 37.4769 -14.6963 -23.9818 11.0192 -77.2583C15.5101 -86.5478 20.7393 -95.5298 27.5681 -104.02C65.1569 -150.59 134.613 -128.197 181.676 -120.692Z" stroke="#979797" stroke-width="0.192492" stroke-miterlimit="10"/>
<path d="M181.615 -122.907C233.6 -115.094 281.34 -90.9165 316.898 -53.3276C352.395 -15.8003 373.312 33.9696 379.895 87.8613C385.678 135.355 384.94 181.003 371.774 223.267C368.883 232.557 365.438 241.662 360.701 250.459C355.902 259.257 349.504 267.562 341.814 274.268C315.668 297.153 283.862 310.195 250.149 314.809C232.677 317.147 214.467 317.393 195.888 315.302C89.2735 303.674 3.08365 215.331 -10.2047 108.532C-10.5123 106.194 -10.6354 103.918 -11.0045 101.58C-20.294 36.615 -16.2952 -24.9053 10.22 -77.8126C14.834 -87.0407 20.2478 -95.9611 27.1381 -104.389C65.0345 -150.468 133.876 -130.105 181.615 -122.907Z" stroke="#979797" stroke-width="0.192492" stroke-miterlimit="10"/>
<path d="M181.553 -125.183C234.461 -117.739 283 -93.3155 319.051 -55.3575C355.102 -17.3995 376.326 33.047 382.663 87.8C388.138 135.355 386.785 181.065 373.127 223.145C370.113 232.373 366.606 241.478 361.746 250.213C356.886 258.949 350.426 267.255 342.798 273.96C316.406 297.215 284.292 310.749 250.087 315.671C232.369 318.193 213.913 318.562 195.088 316.594C86.9352 305.705 -0.54652 216.316 -13.4658 107.979C-13.7734 105.641 -13.8964 103.303 -14.204 100.904C-23.0629 35.8155 -17.9567 -25.8278 9.35824 -78.4276C14.1568 -87.5941 19.6321 -96.453 26.6454 -104.82C64.911 -150.406 133.137 -132.012 181.553 -125.183Z" stroke="#979797" stroke-width="0.192623" stroke-miterlimit="10"/>
<path d="M181.492 -127.46C235.322 -120.385 284.661 -95.7154 321.266 -57.3268C357.87 -18.9382 379.403 32.2466 385.493 87.7994C390.661 135.416 388.692 181.187 374.481 223.144C371.343 232.372 367.714 241.415 362.792 250.09C357.87 258.826 351.411 267.008 343.782 273.775C317.144 297.399 284.723 311.425 250.087 316.716C232.123 319.423 213.483 319.977 194.35 318.07C84.7207 307.673 -4.11448 217.176 -16.6031 107.363C-16.9107 104.964 -17.0337 102.626 -17.3413 100.226C-25.7696 35.015 -19.6176 -26.6897 8.55869 -78.9819C13.4803 -88.0869 19.1402 -96.8843 26.215 -105.19C64.7882 -150.284 132.46 -133.919 181.492 -127.46Z" stroke="#979797" stroke-width="0.192623" stroke-miterlimit="10"/>
<path d="M181.431 -129.736C236.245 -123.031 286.323 -98.1765 323.481 -59.2957C360.578 -20.4149 382.479 31.3851 388.262 87.7992C393.183 135.477 390.599 181.31 375.835 223.082C372.574 232.249 368.821 241.292 363.838 249.966C358.855 258.641 352.334 266.823 344.767 273.652C317.882 297.645 285.154 312.163 250.087 317.823C231.939 320.715 212.991 321.391 193.612 319.607C82.3831 309.764 -7.74404 218.222 -19.802 106.87C-20.0481 104.471 -20.2326 102.072 -20.4787 99.6111C-28.3533 34.1535 -21.1554 -27.5513 7.82058 -79.5974C12.8652 -88.7024 18.7096 -97.4382 25.846 -105.62C64.6653 -150.223 131.722 -135.827 181.431 -129.736Z" stroke="#979797" stroke-width="0.192755" stroke-miterlimit="10"/>
<path d="M181.308 -131.95C237.045 -125.614 287.922 -100.513 325.573 -61.2634C363.223 -22.0135 385.432 30.5248 390.969 87.8001C395.583 135.601 392.384 181.434 377.127 223.083C373.743 232.25 369.867 241.232 364.823 249.844C359.778 258.457 353.257 266.639 345.69 273.468C318.559 297.83 285.523 312.841 250.026 318.87C231.631 321.946 212.437 322.807 192.751 321.085C79.9225 311.734 -11.4966 219.146 -23.1854 106.318C-23.4315 103.857 -23.5545 101.458 -23.8621 98.9968C-31.3061 33.3547 -23.0008 -28.4116 6.83646 -80.0886C12.0657 -89.1321 17.9716 -97.8064 25.231 -105.927C64.5424 -150.099 130.984 -137.733 181.308 -131.95Z" stroke="#979797" stroke-width="0.192755" stroke-miterlimit="10"/>
<path d="M181.246 -134.227C237.906 -128.26 289.583 -102.975 327.787 -63.2329C365.991 -23.4908 388.569 29.7242 393.798 87.7993C398.105 135.662 394.352 181.495 378.541 223.021C375.096 232.187 371.097 241.108 365.93 249.659C360.762 258.272 354.241 266.392 346.674 273.221C319.359 297.952 285.953 313.394 250.026 319.792C231.385 323.053 211.945 324.037 192.012 322.437C77.7075 313.763 -15.065 220.068 -26.3232 105.763C-26.5693 103.302 -26.6924 100.842 -26.9384 98.3192C-33.8902 32.4926 -24.4776 -29.2737 6.09793 -80.7046C11.4502 -89.6866 17.5407 -98.2994 24.8616 -106.42C64.3576 -150.038 130.246 -139.641 181.246 -134.227Z" stroke="#979797" stroke-width="0.192887" stroke-miterlimit="10"/>
<path d="M181.184 -136.505C238.767 -130.845 291.244 -105.376 330.001 -65.2028C368.759 -25.0301 391.645 28.8616 396.566 87.7979C400.627 135.722 396.197 181.616 379.894 223.019C376.326 232.124 372.204 241.045 366.975 249.596C361.746 258.147 355.225 266.268 347.658 273.097C320.097 298.197 286.383 314.131 249.963 320.898C231.077 324.343 211.39 325.451 191.212 323.974C75.3691 315.792 -18.6953 221.051 -29.5229 105.147C-29.769 102.624 -29.892 100.164 -30.1381 97.6412C-36.6592 31.6915 -26.1393 -30.1978 5.29754 -81.3211C10.8344 -90.2416 17.0479 -98.7929 24.4303 -106.852C64.2339 -149.916 129.568 -141.549 181.184 -136.505Z" stroke="#979797" stroke-width="0.192887" stroke-miterlimit="10"/>
<path d="M181.123 -138.779C239.629 -133.488 292.906 -107.834 332.156 -67.1693C371.405 -26.5044 394.722 28.064 399.336 87.8002C403.088 135.847 398.044 181.742 381.249 222.96C377.557 232.065 373.313 240.924 368.022 249.414C362.731 257.965 356.148 266.024 348.643 272.914C320.836 298.384 286.877 314.81 249.964 321.946C230.893 325.576 210.961 326.868 190.474 325.514C72.9093 317.824 -22.4471 222.037 -32.9055 104.657C-33.1516 102.134 -33.2746 99.5505 -33.4592 97.0282C-39.4882 30.894 -27.9224 -31.0569 4.37575 -81.8726C10.0356 -90.7315 16.3722 -99.2213 23.8777 -107.219C64.1119 -149.852 128.831 -143.454 181.123 -138.779Z" stroke="#979797" stroke-width="0.193019" stroke-miterlimit="10"/>
<path d="M181.061 -140.995C240.489 -136.073 294.566 -110.173 334.369 -69.1389C374.173 -28.105 397.797 27.2017 402.165 87.7991C405.61 135.908 400.011 181.864 382.663 222.959C378.848 232.003 374.48 240.862 369.128 249.351C363.776 257.841 357.193 265.9 349.688 272.79C321.696 298.629 287.368 315.547 250.025 323.053C230.708 326.867 210.529 328.282 189.797 327.051C70.7552 319.792 -25.9546 222.898 -35.9824 104.041C-36.2285 101.457 -36.29 98.8728 -36.5361 96.3505C-42.1344 29.9702 -29.4613 -32.0422 3.63661 -82.4888C9.48103 -91.2862 15.9407 -99.7145 23.5076 -107.651C63.9264 -149.792 128.092 -145.362 181.061 -140.995Z" stroke="#979797" stroke-width="0.193019" stroke-miterlimit="10"/>
<path d="M181 -143.271C241.351 -138.719 296.227 -112.573 336.523 -71.108C376.819 -29.6433 400.873 26.4016 404.934 87.7988C408.133 136.031 401.796 181.925 384.017 222.897C380.079 231.941 375.65 240.738 370.175 249.166C364.761 257.595 358.117 265.592 350.673 272.544C322.435 298.813 287.799 316.162 250.026 323.975C230.462 327.974 210.037 329.573 189.059 328.404C68.4179 321.822 -29.5838 223.881 -39.181 103.486C-39.3655 100.903 -39.4886 98.2572 -39.6731 95.6734C-44.8408 29.17 -31.0603 -32.9039 2.89888 -83.0429C8.86634 -91.7787 15.449 -100.145 23.139 -108.02C63.8039 -149.669 127.354 -147.332 181 -143.271Z" stroke="#979797" stroke-width="0.193151" stroke-miterlimit="10"/>
<path d="M180.938 -145.546C242.212 -141.363 297.888 -115.032 338.738 -73.0754C379.587 -31.1186 404.011 25.603 407.763 87.8C410.655 136.093 403.703 182.049 385.431 222.898C381.371 231.88 376.819 240.678 371.282 249.044C365.745 257.473 359.162 265.409 351.718 272.361C323.234 298.999 288.291 316.84 250.087 325.022C230.339 329.205 209.607 330.928 188.321 329.882C66.08 323.853 -33.2137 224.806 -42.4417 102.934C-42.6263 100.289 -42.7493 97.6432 -42.9339 95.0594C-47.6709 28.3715 -32.783 -33.764 1.97589 -83.5954C8.06639 -92.2697 14.8336 -100.575 22.5852 -108.388C63.6807 -149.607 126.677 -149.237 180.938 -145.546Z" stroke="#979797" stroke-width="0.193151" stroke-miterlimit="10"/>
<path d="M180.877 -147.822C243.012 -144.008 299.549 -117.431 340.952 -75.1052C382.355 -32.7793 407.148 24.6806 410.593 87.7388C413.239 136.155 405.672 182.111 386.846 222.776C382.663 231.758 377.988 240.493 372.389 248.86C366.791 257.227 360.208 265.163 352.764 272.115C324.096 299.122 288.783 317.455 250.087 326.007C230.093 330.375 209.176 332.282 187.582 331.297C63.8037 325.884 -36.8434 225.79 -45.6407 102.381C-45.8253 99.7352 -45.9483 97.0283 -46.0714 94.383C-50.3163 27.449 -34.3826 -34.6865 1.23766 -84.2102C7.51272 -92.8846 14.403 -101.067 22.2161 -108.818C63.4961 -149.545 125.939 -151.144 180.877 -147.822Z" stroke="#979797" stroke-width="0.193283" stroke-miterlimit="10"/>
<path d="M180.815 -150.037C243.873 -146.592 301.21 -119.83 343.105 -77.0121C385.001 -34.1941 410.224 23.9425 413.3 87.8005C415.699 136.278 407.455 182.296 388.138 222.837C383.832 231.758 379.033 240.494 373.435 248.799C367.775 257.104 361.131 265.04 353.748 272.054C324.834 299.43 289.214 318.255 250.087 327.176C229.847 331.728 208.684 333.758 186.844 332.897C61.4658 327.852 -40.4732 226.713 -48.9015 101.827C-49.086 99.1202 -49.1476 96.4133 -49.3321 93.7065C-53.1464 26.5879 -36.1053 -35.609 0.314698 -84.7637C6.7128 -93.3765 13.7261 -101.559 21.6622 -109.187C63.3729 -149.421 125.201 -153.051 180.815 -150.037Z" stroke="#979797" stroke-width="0.193283" stroke-miterlimit="10"/>
<path d="M180.754 -152.313C244.735 -149.299 302.872 -122.23 345.321 -78.9811C387.77 -35.7324 413.362 23.0809 416.13 87.8002C418.222 136.401 409.425 182.418 389.554 222.776C385.124 231.696 380.264 240.37 374.543 248.614C368.821 256.919 362.177 264.794 354.795 271.807C325.696 299.553 289.706 318.87 250.149 328.098C229.724 332.835 208.254 334.988 186.168 334.25C59.1286 329.882 -44.1023 227.636 -52.1 101.273C-52.2845 98.5662 -52.3461 95.7978 -52.4691 93.0909C-55.8527 25.7878 -37.7658 -36.4707 -0.422989 -85.3177C6.15968 -93.869 13.296 -101.99 21.2937 -109.557C63.2504 -149.36 124.463 -155.02 180.754 -152.313Z" stroke="#979797" stroke-width="0.193415" stroke-miterlimit="10"/>
<path d="M180.692 -154.589C245.596 -151.944 304.532 -124.629 347.535 -81.0108C390.538 -37.393 416.499 22.2201 418.96 87.7392C420.806 136.402 411.331 182.48 390.968 222.715C386.416 231.573 381.433 240.248 375.65 248.492C369.867 256.735 363.161 264.61 355.84 271.623C326.495 299.738 290.198 319.547 250.21 329.145C229.539 334.066 207.823 336.404 185.491 335.727C56.9134 331.913 -47.671 228.559 -55.2379 100.658C-55.4225 97.89 -55.484 95.1216 -55.6071 92.3532C-58.56 24.8655 -39.3657 -37.4545 -1.22319 -85.9939C5.48252 -94.4837 12.8034 -102.543 20.8626 -110.048C63.0654 -149.298 123.724 -156.927 180.692 -154.589Z" stroke="#979797" stroke-width="0.193415" stroke-miterlimit="10"/>
<path d="M180.631 -156.868C246.458 -154.592 306.194 -127.092 349.688 -82.9822C393.183 -38.8722 419.575 21.4176 421.729 87.7979C423.267 136.583 413.239 182.601 392.322 222.712C387.708 231.571 382.54 240.184 376.696 248.366C370.851 256.609 364.146 264.422 356.825 271.436C327.234 299.981 290.691 320.221 250.21 330.188C229.293 335.294 207.331 337.755 184.753 337.201C54.5759 333.94 -51.2389 229.541 -58.4367 100.102C-58.6213 97.3336 -58.6828 94.5036 -58.7443 91.7352C-61.2667 24.063 -40.965 -38.3185 -1.96117 -86.5504C4.86757 -94.9786 12.3115 -102.976 20.4937 -110.482C62.9427 -149.239 122.986 -158.837 180.631 -156.868Z" stroke="#979797" stroke-width="0.193546" stroke-miterlimit="10"/>
<path d="M180.507 -159.081C247.257 -157.174 307.793 -129.49 351.841 -84.949C395.89 -40.4083 422.651 20.5582 424.435 87.7998C425.727 136.647 415.022 182.725 393.613 222.714C388.876 231.573 383.586 240.124 377.68 248.245C371.712 256.427 365.006 264.178 357.747 271.315C327.971 300.229 291.059 320.961 250.087 331.297C228.985 336.588 206.776 339.233 183.829 338.741C52.1761 335.911 -54.9921 230.465 -61.7593 99.5502C-61.8824 96.7202 -62.0054 93.8903 -62.0669 91.0604C-64.1586 23.2036 -42.7496 -39.2395 -2.94602 -87.1637C4.06728 -95.5305 11.6343 -103.467 19.878 -110.911C62.7576 -149.176 122.248 -160.803 180.507 -159.081Z" stroke="#979797" stroke-width="0.193546" stroke-miterlimit="10"/>
<path d="M180.447 -161.356C248.119 -159.818 309.454 -131.888 353.995 -86.8552C398.536 -41.8224 425.789 19.8208 427.204 87.8622C428.25 136.832 416.93 182.911 394.968 222.715C390.107 231.512 384.755 240.002 378.726 248.184C372.697 256.305 365.991 264.056 358.732 271.192C328.71 300.476 291.491 321.639 250.087 332.344C228.74 337.819 206.285 340.587 183.092 340.218C49.7776 338.003 -58.6826 231.512 -65.0807 99.0589C-65.2037 96.2289 -65.2652 93.3375 -65.3268 90.5076C-66.9878 22.4047 -44.4714 -40.0383 -3.80655 -87.5935C3.3298 -95.9602 11.0198 -103.773 19.3866 -111.156C62.6353 -149.114 121.572 -162.71 180.447 -161.356Z" stroke="#979797" stroke-width="0.193678" stroke-miterlimit="10"/>
<path d="M180.384 -163.634C248.979 -162.465 311.115 -134.289 356.209 -88.8869C401.303 -43.485 428.926 18.958 430.033 87.7992C430.833 136.892 418.837 182.971 396.382 222.651C391.399 231.449 385.923 239.877 379.833 247.998C373.742 256.118 367.037 263.809 359.777 270.945C329.571 300.598 291.982 322.253 250.148 333.326C228.555 338.986 205.854 341.939 182.414 341.632C47.5622 339.971 -62.2514 232.372 -68.2189 98.4422C-68.3419 95.5507 -68.4034 92.6593 -68.465 89.7678C-69.6954 21.4804 -46.0716 -41.0242 -4.60696 -88.2717C2.65242 -96.5769 10.527 -104.39 18.9553 -111.649C62.5116 -149.054 120.833 -164.618 180.384 -163.634Z" stroke="#979797" stroke-width="0.193678" stroke-miterlimit="10"/>
<path d="M180.323 -165.911C249.779 -165.173 312.715 -136.689 358.424 -90.8562C404.134 -45.0236 432.125 18.0961 432.864 87.7986C433.356 136.953 420.806 183.093 397.797 222.589C392.691 231.325 387.092 239.754 380.94 247.813C374.788 255.872 368.021 263.562 360.823 270.698C330.371 300.782 292.413 322.929 250.148 334.372C228.37 340.216 205.362 343.292 181.677 343.107C45.2247 342 -65.8809 233.355 -71.4177 97.8879C-71.5407 94.9964 -71.6022 92.0435 -71.6022 89.152C-72.4635 20.6185 -47.7324 -41.8861 -5.40649 -88.826C2.03746 -97.0697 9.97357 -104.821 18.5249 -112.019C62.2658 -149.054 120.095 -166.588 180.323 -165.911Z" stroke="#979797" stroke-width="0.19381" stroke-miterlimit="10"/>
<path d="M180.262 -168.186C250.641 -167.879 314.437 -139.087 360.577 -92.824C406.717 -46.5608 435.263 17.2972 435.632 87.7993C435.878 137.077 422.651 183.217 399.15 222.59C393.921 231.326 388.2 239.693 381.986 247.752C375.773 255.811 369.006 263.44 361.808 270.576C331.232 301.09 292.905 323.606 250.21 335.418C228.186 341.509 204.993 344.646 181 344.585C42.8869 344.031 -69.5106 234.279 -74.6168 97.335C-74.7398 94.382 -74.8013 91.429 -74.8013 88.4761C-75.232 19.758 -49.3935 -42.8081 -6.20629 -89.4404C1.3607 -97.6226 9.48137 -105.313 18.0942 -112.449C62.1427 -148.93 119.356 -168.555 180.262 -168.186Z" stroke="#979797" stroke-width="0.19381" stroke-miterlimit="10"/>
<path d="M-78.0005 87.8C-78.0005 -54.8039 37.596 -170.4 180.2 -170.4C251.502 -170.4 316.037 -141.486 362.792 -94.792C409.547 -48.0982 438.4 16.498 438.4 87.8C438.4 159.102 409.486 223.637 362.792 270.392C316.098 317.147 251.502 346 180.2 346C37.596 346 -78.0005 230.404 -78.0005 87.8Z" stroke="#979797" stroke-width="0.193942" stroke-miterlimit="10"/>
</svg>
